<svg width="430" height="932" viewBox="0 0 430 932" fill="none" xmlns="http://www.w3.org/2000/svg">
<rect width="430" height="932" fill="url(#paint0_linear_476_11335)"/>
<rect width="430" height="932" fill="url(#paint1_linear_476_11335)"/>
<rect width="430" height="932" fill="url(#paint2_radial_476_11335)" fill-opacity="0.5"/>
<rect width="430" height="932" fill="url(#paint3_linear_476_11335)" fill-opacity="0.5"/>
<circle cx="257.193" cy="29.0607" r="10.3683" fill="url(#paint4_linear_476_11335)" fill-opacity="0.2"/>
<circle cx="257.193" cy="29.0607" r="10.3683" fill="url(#paint5_linear_476_11335)"/>
<g opacity="0.5">
<path fill-rule="evenodd" clip-rule="evenodd" d="M258.057 33.0211V26.0008C258.057 25.6863 258.056 25.4824 258.036 25.3329C258.017 25.1925 257.986 25.1485 257.962 25.1239C257.937 25.0992 257.893 25.0686 257.752 25.0495C257.603 25.0297 257.399 25.0288 257.085 25.0288C256.77 25.0288 256.566 25.0297 256.417 25.0495C256.276 25.0686 256.232 25.0992 256.208 25.1239C256.183 25.1485 256.152 25.1925 256.133 25.3329C256.113 25.4829 256.113 25.6863 256.113 26.0008V33.0211H258.057Z" fill="url(#paint6_linear_476_11335)"/>
<path d="M255.465 27.9449C255.465 27.859 255.43 27.7766 255.37 27.7158C255.309 27.655 255.226 27.6209 255.141 27.6209H253.844C253.759 27.6209 253.676 27.655 253.615 27.7158C253.555 27.7766 253.52 27.859 253.52 27.9449V33.0211H255.465V27.9449ZM260.649 30.105C260.649 30.019 260.615 29.9366 260.554 29.8759C260.493 29.8151 260.411 29.781 260.325 29.781H259.029C258.943 29.781 258.86 29.8151 258.8 29.8759C258.739 29.9366 258.705 30.019 258.705 30.105V33.0211H260.649V30.105Z" fill="url(#paint7_linear_476_11335)"/>
<path d="M252.764 33.0211C252.679 33.0211 252.596 33.0552 252.535 33.116C252.475 33.1767 252.44 33.2591 252.44 33.3451C252.44 33.431 252.475 33.5134 252.535 33.5742C252.596 33.635 252.679 33.6691 252.764 33.6691H261.405C261.491 33.6691 261.573 33.635 261.634 33.5742C261.695 33.5134 261.729 33.431 261.729 33.3451C261.729 33.2591 261.695 33.1767 261.634 33.116C261.573 33.0552 261.491 33.0211 261.405 33.0211H252.764Z" fill="url(#paint8_linear_476_11335)"/>
</g>
<g opacity="0.4">
<ellipse cx="112.5" cy="48.6113" rx="14.5" ry="14" fill="url(#paint9_linear_476_11335)"/>
<path d="M118.542 48.1004V52.6375C118.542 52.9813 118.4 53.311 118.149 53.5541C117.897 53.7972 117.555 53.9338 117.199 53.9338H107.801C107.445 53.9338 107.104 53.7972 106.852 53.5541C106.6 53.311 106.458 52.9813 106.458 52.6375V48.1004H118.542ZM115.185 42.2671C115.363 42.2671 115.534 42.3354 115.66 42.4569C115.786 42.5785 115.857 42.7433 115.857 42.9152V43.5634H117.199C117.555 43.5634 117.897 43.7 118.149 43.9431C118.4 44.1862 118.542 44.5159 118.542 44.8597V46.8041H106.458V44.8597C106.458 44.5159 106.6 44.1862 106.852 43.9431C107.104 43.7 107.445 43.5634 107.801 43.5634H109.144V42.9152C109.144 42.7433 109.214 42.5785 109.34 42.4569C109.466 42.3354 109.637 42.2671 109.815 42.2671C109.993 42.2671 110.164 42.3354 110.29 42.4569C110.416 42.5785 110.486 42.7433 110.486 42.9152V43.5634H114.514V42.9152C114.514 42.7433 114.585 42.5785 114.711 42.4569C114.837 42.3354 115.007 42.2671 115.185 42.2671Z" fill="url(#paint10_linear_476_11335)"/>
</g>
<circle cx="336.157" cy="67.006" r="10.3683" fill="url(#paint11_linear_476_11335)" fill-opacity="0.2"/>
<circle cx="336.157" cy="67.006" r="10.3683" fill="url(#paint12_linear_476_11335)"/>
<g clip-path="url(#clip0_476_11335)">
<path d="M340.214 66.2121C340.029 65.2724 339.523 64.4263 338.783 63.8182C338.043 63.21 337.115 62.8777 336.157 62.8779C334.562 62.8779 333.176 63.7832 332.486 65.1081C331.675 65.1958 330.924 65.5802 330.379 66.1875C329.834 66.7947 329.533 67.582 329.533 68.3981C329.533 70.2253 331.018 71.7102 332.845 71.7102H340.021C341.545 71.7102 342.781 70.4737 342.781 68.9501C342.781 67.4928 341.65 66.3115 340.214 66.2121ZM337.261 67.8461V70.0542H335.053V67.8461H333.397L336.157 65.086L338.917 67.8461H337.261Z" fill="url(#paint13_linear_476_11335)"/>
</g>
<path d="M-175.101 140.863C-41.7539 95.8985 -58.6736 2.94465 50.5779 35.4272C126.229 57.9195 209.922 91.007 275.053 45.2785C387.874 -33.9334 453.327 35.427 494.528 69.5073C537.909 105.391 569.291 111.575 612.575 45.2785" stroke="url(#paint14_linear_476_11335)" stroke-width="0.5"/>
<path d="M-179.633 154.138C-60.1217 99.3516 -46.8118 32.6148 57.481 78.7965C126.898 109.535 201.589 159.602 282.668 99.3516C430.804 -10.73 452.512 55.0032 515.01 106.203C589.677 167.371 643.586 74.7018 661 66.7795" stroke="url(#paint15_linear_476_11335)" stroke-width="0.5"/>
<path d="M-175.296 141.386C-42.5482 95.9971 -58.1603 4.17735 50.8768 37.2525C126.258 60.1015 209.562 93.9235 275.383 47.5668C389.731 -32.9805 453.292 36.2231 495.414 71.0439C540.149 108.021 572.505 109.929 614.67 46.1578" stroke="url(#paint16_linear_476_11335)" stroke-width="0.5"/>
<path d="M-175.494 141.922C-43.3505 96.1036 -57.6417 5.42935 51.1787 39.1031C126.287 62.3124 209.198 96.8764 275.716 49.8851C391.608 -32.011 453.257 37.034 496.31 72.6029C542.411 110.685 575.752 108.273 616.786 47.0528" stroke="url(#paint17_linear_476_11335)" stroke-width="0.5"/>
<path d="M-175.694 142.468C-44.1613 96.2164 -57.1184 6.6992 51.4831 40.9774C126.317 64.5507 208.83 99.8639 276.051 52.2318C393.502 -31.0266 453.221 37.8584 497.213 74.1828C544.695 113.381 579.03 106.607 618.923 47.9622" stroke="url(#paint18_linear_476_11335)" stroke-width="0.5"/>
<path d="M-175.897 143.025C-44.9805 96.3352 -56.5904 7.98638 51.7901 42.8752C126.346 66.8159 208.458 102.886 276.39 54.6066C395.415 -30.0276 453.184 38.6958 498.125 75.7831C547.002 116.108 582.341 104.928 621.081 48.8853" stroke="url(#paint19_linear_476_11335)" stroke-width="0.5"/>
<path d="M-176.101 143.593C-45.8068 96.4614 -56.0563 9.29237 52.1011 44.7977C126.376 69.1095 208.083 105.944 276.733 57.0107C397.347 -29.0126 453.147 39.5475 499.047 77.4053C549.332 118.868 585.685 103.24 623.26 49.8236" stroke="url(#paint20_linear_476_11335)" stroke-width="0.5"/>
<path d="M-176.307 144.17C-46.6415 96.5924 -55.5174 10.6147 52.4147 46.7425C126.406 71.429 207.704 109.035 277.079 59.4419C399.297 -27.9841 453.11 40.4112 499.978 79.0468C551.684 121.658 589.06 101.538 625.46 50.7748" stroke="url(#paint21_linear_476_11335)" stroke-width="0.5"/>
<path d="M-176.514 144.76C-47.4837 96.7318 -54.9728 11.9568 52.7317 48.713C126.438 73.7778 207.323 112.162 277.429 61.9035C401.267 -26.9387 453.073 41.2902 500.918 80.7112C554.059 124.483 592.469 99.8278 627.682 51.7421" stroke="url(#paint22_linear_476_11335)" stroke-width="0.5"/>
<path d="M-176.724 145.36C-48.3344 96.8766 -54.4236 13.3157 53.0514 50.7063C126.469 76.153 206.937 115.324 277.781 64.3925C403.255 -25.8793 453.035 42.1816 501.867 82.3955C556.457 127.338 595.91 98.105 629.925 52.7227" stroke="url(#paint23_linear_476_11335)" stroke-width="0.5"/>
<path d="M-176.936 145.971C-49.1931 97.0286 -53.8691 14.6933 53.374 52.7243C126.5 78.5565 206.547 118.521 278.137 66.9109C405.262 -24.804 452.997 43.0874 502.824 84.1016C558.876 130.226 599.383 96.372 632.189 53.7184" stroke="url(#paint24_linear_476_11335)" stroke-width="0.5"/>
<path d="M-177.15 146.593C-50.0603 97.1875 -53.31 16.0892 53.6992 54.7665C126.531 80.9877 206.153 121.754 278.496 69.4581C407.287 -23.7132 452.958 44.007 503.79 85.8289C561.319 133.146 602.888 94.6281 634.473 54.7289" stroke="url(#paint25_linear_476_11335)" stroke-width="0.5"/>
<path d="M-177.366 147.226C-50.9344 97.3521 -52.7446 17.5023 54.0284 56.832C126.563 83.4459 205.757 125.02 278.859 72.0333C409.332 -22.6081 452.92 44.9394 504.766 87.5766C563.784 136.098 606.426 92.8725 636.779 55.7529" stroke="url(#paint26_linear_476_11335)" stroke-width="0.5"/>
<path d="M-177.583 147.869C-51.8171 97.523 -52.1746 18.933 54.3602 58.9211C126.595 85.9312 205.357 128.322 279.225 74.6367C411.395 -21.488 452.881 45.8851 505.75 89.345C566.272 139.082 609.996 91.1055 639.106 56.7912" stroke="url(#paint27_linear_476_11335)" stroke-width="0.5"/>
<path d="M-177.804 148.524C-52.7082 97.7017 -51.5998 20.383 54.6945 61.0353C126.627 88.4453 204.952 131.659 279.594 77.27C413.476 -20.3517 452.841 46.8455 506.743 91.1356C568.782 142.098 613.598 89.3287 641.454 57.8449" stroke="url(#paint28_linear_476_11335)" stroke-width="0.5"/>
<path d="M-178.025 149.188C-53.6063 97.885 -51.0189 21.849 55.0328 63.1716C126.661 90.9851 204.545 135.03 279.967 79.93C415.577 -19.202 452.801 47.8178 507.746 92.9454C571.315 145.145 617.234 87.539 643.824 58.9113" stroke="url(#paint29_linear_476_11335)" stroke-width="0.5"/>
<path d="M-178.249 149.864C-54.5134 98.076 -50.4338 23.3342 55.3731 65.3331C126.693 93.5535 204.133 138.436 280.342 82.6198C417.696 -18.0361 452.761 48.8047 508.756 94.7774C573.87 148.225 620.901 85.7394 646.214 59.9933" stroke="url(#paint30_linear_476_11335)" stroke-width="0.5"/>
<path d="M-178.475 150.55C-55.428 98.2732 -49.8429 24.837 55.717 67.518C126.727 96.1491 203.718 141.877 280.722 85.3378C419.834 -16.8554 452.72 49.8047 509.776 96.63C576.448 151.337 624.601 83.9283 648.626 61.0892" stroke="url(#paint31_linear_476_11335)" stroke-width="0.5"/>
<path d="M-178.703 151.247C-56.3511 98.4765 -49.2474 26.3573 56.0634 69.7265C126.76 98.7719 203.299 145.353 281.104 88.084C421.99 -15.6599 452.679 50.818 510.805 98.5033C579.049 154.481 628.333 82.1058 651.058 62.1991" stroke="url(#paint32_linear_476_11335)" stroke-width="0.5"/>
<path d="M-178.932 151.953C-57.2816 98.6848 -48.6462 27.8941 56.4134 71.9575C126.794 101.421 202.877 148.862 281.49 90.8574C424.165 -14.4507 452.638 51.8433 511.843 100.396C581.672 157.655 632.098 80.2708 653.512 63.322" stroke="url(#paint33_linear_476_11335)" stroke-width="0.5"/>
<path d="M-179.164 152.671C-58.2207 98.9012 -48.0402 29.4504 56.7659 74.2139C126.828 104.099 202.451 152.408 281.879 93.6609C426.359 -13.225 452.596 52.8837 512.89 102.311C584.317 160.862 635.894 78.4262 655.986 64.4608" stroke="url(#paint34_linear_476_11335)" stroke-width="0.5"/>
<path d="M-179.397 153.399C-59.1672 99.1232 -47.4286 31.0237 57.1219 76.4933C126.863 106.803 202.022 155.987 282.271 96.4919C428.572 -11.985 452.554 53.9367 513.945 104.247C586.986 164.101 639.724 76.5696 658.483 65.613" stroke="url(#paint35_linear_476_11335)" stroke-width="0.5"/>
<defs>
<linearGradient id="paint0_linear_476_11335" x1="215" y1="0" x2="215" y2="932" gradientUnits="userSpaceOnUse">
<stop stop-color="#F7F8F9"/>
<stop offset="0.474593" stop-color="#FBFDFF"/>
<stop offset="1" stop-color="white"/>
</linearGradient>
<linearGradient id="paint1_linear_476_11335" x1="215" y1="0" x2="215" y2="932" gradientUnits="userSpaceOnUse">
<stop stop-color="#EAEFF3" stop-opacity="0"/>
<stop offset="0.497636" stop-color="#F2F6F9" stop-opacity="0.5"/>
<stop offset="1" stop-color="#E5EAEF" stop-opacity="0"/>
</linearGradient>
<radialGradient id="paint2_radial_476_11335" cx="0" cy="0" r="1" gradientUnits="userSpaceOnUse" gradientTransform="translate(96.0781 1.93635e-05) rotate(88.0371) scale(765.761 359.041)">
<stop stop-color="#EFF6FB"/>
<stop offset="0.425" stop-color="white"/>
<stop offset="0.845659" stop-color="white"/>
</radialGradient>
<linearGradient id="paint3_linear_476_11335" x1="215" y1="0" x2="215" y2="1013.9" gradientUnits="userSpaceOnUse">
<stop stop-color="#FEFEFF"/>
<stop offset="0.22" stop-color="#E7F3FF"/>
<stop offset="0.485" stop-color="white"/>
</linearGradient>
<linearGradient id="paint4_linear_476_11335" x1="257.193" y1="18.6924" x2="257.193" y2="39.4291" gradientUnits="userSpaceOnUse">
<stop offset="0.37701" stop-color="white"/>
<stop offset="1" stop-color="#DCE4EF"/>
</linearGradient>
<linearGradient id="paint5_linear_476_11335" x1="257.193" y1="18.6924" x2="257.193" y2="39.4291" gradientUnits="userSpaceOnUse">
<stop stop-color="#E1F1FF" stop-opacity="0"/>
<stop offset="1" stop-color="white"/>
</linearGradient>
<linearGradient id="paint6_linear_476_11335" x1="257.085" y1="25.0288" x2="257.085" y2="33.6691" gradientUnits="userSpaceOnUse">
<stop offset="0.477884" stop-color="#C7DBED"/>
<stop offset="1" stop-color="#E9EEF5"/>
</linearGradient>
<linearGradient id="paint7_linear_476_11335" x1="257.085" y1="25.0288" x2="257.085" y2="33.6691" gradientUnits="userSpaceOnUse">
<stop offset="0.477884" stop-color="#C7DBED"/>
<stop offset="1" stop-color="#E9EEF5"/>
</linearGradient>
<linearGradient id="paint8_linear_476_11335" x1="257.085" y1="25.0288" x2="257.085" y2="33.6691" gradientUnits="userSpaceOnUse">
<stop offset="0.477884" stop-color="#C7DBED"/>
<stop offset="1" stop-color="#E9EEF5"/>
</linearGradient>
<linearGradient id="paint9_linear_476_11335" x1="112.5" y1="34.6113" x2="112.5" y2="62.6113" gradientUnits="userSpaceOnUse">
<stop stop-color="#F9FBFF"/>
<stop offset="0.37701" stop-color="white"/>
<stop offset="1" stop-color="white"/>
</linearGradient>
<linearGradient id="paint10_linear_476_11335" x1="112.5" y1="42.2671" x2="112.5" y2="53.9338" gradientUnits="userSpaceOnUse">
<stop stop-color="#C7DBED"/>
<stop offset="1" stop-color="#F2F5F9"/>
</linearGradient>
<linearGradient id="paint11_linear_476_11335" x1="336.157" y1="56.6377" x2="336.157" y2="77.3744" gradientUnits="userSpaceOnUse">
<stop offset="0.37701" stop-color="white"/>
<stop offset="1" stop-color="#DCE4EF"/>
</linearGradient>
<linearGradient id="paint12_linear_476_11335" x1="336.157" y1="56.6377" x2="336.157" y2="77.3744" gradientUnits="userSpaceOnUse">
<stop stop-color="#E2F1FF" stop-opacity="0"/>
<stop offset="1" stop-color="#F9FCFF"/>
</linearGradient>
<linearGradient id="paint13_linear_476_11335" x1="336.157" y1="62.8779" x2="336.157" y2="71.7102" gradientUnits="userSpaceOnUse">
<stop stop-color="#C7DBED"/>
<stop offset="1" stop-color="#F2F5F9"/>
</linearGradient>
<linearGradient id="paint14_linear_476_11335" x1="-175.101" y1="152.944" x2="612.575" y2="152.944" gradientUnits="userSpaceOnUse">
<stop offset="0.11" stop-color="#F7FAFE" stop-opacity="0"/>
<stop offset="0.445" stop-color="#DEEEFD"/>
<stop offset="1" stop-color="#F0F5F9" stop-opacity="0.5"/>
</linearGradient>
<linearGradient id="paint15_linear_476_11335" x1="-179.633" y1="164.627" x2="661" y2="164.627" gradientUnits="userSpaceOnUse">
<stop offset="0.11" stop-color="#F7FAFE" stop-opacity="0"/>
<stop offset="0.445" stop-color="#DEEEFD"/>
<stop offset="1" stop-color="#F0F5F9" stop-opacity="0.5"/>
</linearGradient>
<linearGradient id="paint16_linear_476_11335" x1="-175.296" y1="153.394" x2="614.67" y2="153.394" gradientUnits="userSpaceOnUse">
<stop offset="0.11" stop-color="#F7FAFE" stop-opacity="0"/>
<stop offset="0.445" stop-color="#DEEEFD"/>
<stop offset="1" stop-color="#F0F5F9" stop-opacity="0.5"/>
</linearGradient>
<linearGradient id="paint17_linear_476_11335" x1="-175.494" y1="153.856" x2="616.786" y2="153.856" gradientUnits="userSpaceOnUse">
<stop offset="0.11" stop-color="#F7FAFE" stop-opacity="0"/>
<stop offset="0.445" stop-color="#DEEEFD"/>
<stop offset="1" stop-color="#F0F5F9" stop-opacity="0.5"/>
</linearGradient>
<linearGradient id="paint18_linear_476_11335" x1="-175.694" y1="154.328" x2="618.923" y2="154.328" gradientUnits="userSpaceOnUse">
<stop offset="0.11" stop-color="#F7FAFE" stop-opacity="0"/>
<stop offset="0.445" stop-color="#DEEEFD"/>
<stop offset="1" stop-color="#F0F5F9" stop-opacity="0.5"/>
</linearGradient>
<linearGradient id="paint19_linear_476_11335" x1="-175.897" y1="154.811" x2="621.081" y2="154.811" gradientUnits="userSpaceOnUse">
<stop offset="0.11" stop-color="#F7FAFE" stop-opacity="0"/>
<stop offset="0.445" stop-color="#DEEEFD"/>
<stop offset="1" stop-color="#F0F5F9" stop-opacity="0.5"/>
</linearGradient>
<linearGradient id="paint20_linear_476_11335" x1="-176.101" y1="155.305" x2="623.26" y2="155.305" gradientUnits="userSpaceOnUse">
<stop offset="0.11" stop-color="#F7FAFE" stop-opacity="0"/>
<stop offset="0.445" stop-color="#DEEEFD"/>
<stop offset="1" stop-color="#F0F5F9" stop-opacity="0.5"/>
</linearGradient>
<linearGradient id="paint21_linear_476_11335" x1="-176.307" y1="155.807" x2="625.46" y2="155.807" gradientUnits="userSpaceOnUse">
<stop offset="0.11" stop-color="#F7FAFE" stop-opacity="0"/>
<stop offset="0.445" stop-color="#DEEEFD"/>
<stop offset="1" stop-color="#F0F5F9" stop-opacity="0.5"/>
</linearGradient>
<linearGradient id="paint22_linear_476_11335" x1="-176.514" y1="156.323" x2="627.682" y2="156.323" gradientUnits="userSpaceOnUse">
<stop offset="0.11" stop-color="#F7FAFE" stop-opacity="0"/>
<stop offset="0.445" stop-color="#DEEEFD"/>
<stop offset="1" stop-color="#F0F5F9" stop-opacity="0.5"/>
</linearGradient>
<linearGradient id="paint23_linear_476_11335" x1="-176.724" y1="156.847" x2="629.925" y2="156.847" gradientUnits="userSpaceOnUse">
<stop offset="0.11" stop-color="#F7FAFE" stop-opacity="0"/>
<stop offset="0.445" stop-color="#DEEEFD"/>
<stop offset="1" stop-color="#F0F5F9" stop-opacity="0.5"/>
</linearGradient>
<linearGradient id="paint24_linear_476_11335" x1="-176.936" y1="157.383" x2="632.189" y2="157.383" gradientUnits="userSpaceOnUse">
<stop offset="0.11" stop-color="#F7FAFE" stop-opacity="0"/>
<stop offset="0.445" stop-color="#DEEEFD"/>
<stop offset="1" stop-color="#F0F5F9" stop-opacity="0.5"/>
</linearGradient>
<linearGradient id="paint25_linear_476_11335" x1="-177.15" y1="157.93" x2="634.473" y2="157.93" gradientUnits="userSpaceOnUse">
<stop offset="0.11" stop-color="#F7FAFE" stop-opacity="0"/>
<stop offset="0.445" stop-color="#DEEEFD"/>
<stop offset="1" stop-color="#F0F5F9" stop-opacity="0.5"/>
</linearGradient>
<linearGradient id="paint26_linear_476_11335" x1="-177.366" y1="158.487" x2="636.779" y2="158.487" gradientUnits="userSpaceOnUse">
<stop offset="0.11" stop-color="#F7FAFE" stop-opacity="0"/>
<stop offset="0.445" stop-color="#DEEEFD"/>
<stop offset="1" stop-color="#F0F5F9" stop-opacity="0.5"/>
</linearGradient>
<linearGradient id="paint27_linear_476_11335" x1="-177.583" y1="159.053" x2="639.106" y2="159.053" gradientUnits="userSpaceOnUse">
<stop offset="0.11" stop-color="#F7FAFE" stop-opacity="0"/>
<stop offset="0.445" stop-color="#DEEEFD"/>
<stop offset="1" stop-color="#F0F5F9" stop-opacity="0.5"/>
</linearGradient>
<linearGradient id="paint28_linear_476_11335" x1="-177.804" y1="159.632" x2="641.454" y2="159.632" gradientUnits="userSpaceOnUse">
<stop offset="0.11" stop-color="#F7FAFE" stop-opacity="0"/>
<stop offset="0.445" stop-color="#DEEEFD"/>
<stop offset="1" stop-color="#F0F5F9" stop-opacity="0.5"/>
</linearGradient>
<linearGradient id="paint29_linear_476_11335" x1="-178.025" y1="160.22" x2="643.824" y2="160.22" gradientUnits="userSpaceOnUse">
<stop offset="0.11" stop-color="#F7FAFE" stop-opacity="0"/>
<stop offset="0.445" stop-color="#DEEEFD"/>
<stop offset="1" stop-color="#F0F5F9" stop-opacity="0.5"/>
</linearGradient>
<linearGradient id="paint30_linear_476_11335" x1="-178.249" y1="160.819" x2="646.214" y2="160.819" gradientUnits="userSpaceOnUse">
<stop offset="0.11" stop-color="#F7FAFE" stop-opacity="0"/>
<stop offset="0.445" stop-color="#DEEEFD"/>
<stop offset="1" stop-color="#F0F5F9" stop-opacity="0.5"/>
</linearGradient>
<linearGradient id="paint31_linear_476_11335" x1="-178.475" y1="161.428" x2="648.626" y2="161.428" gradientUnits="userSpaceOnUse">
<stop offset="0.11" stop-color="#F7FAFE" stop-opacity="0"/>
<stop offset="0.445" stop-color="#DEEEFD"/>
<stop offset="1" stop-color="#F0F5F9" stop-opacity="0.5"/>
</linearGradient>
<linearGradient id="paint32_linear_476_11335" x1="-178.703" y1="162.047" x2="651.058" y2="162.047" gradientUnits="userSpaceOnUse">
<stop offset="0.11" stop-color="#F7FAFE" stop-opacity="0"/>
<stop offset="0.445" stop-color="#DEEEFD"/>
<stop offset="1" stop-color="#F0F5F9" stop-opacity="0.5"/>
</linearGradient>
<linearGradient id="paint33_linear_476_11335" x1="-178.932" y1="162.676" x2="653.512" y2="162.676" gradientUnits="userSpaceOnUse">
<stop offset="0.11" stop-color="#F7FAFE" stop-opacity="0"/>
<stop offset="0.445" stop-color="#DEEEFD"/>
<stop offset="1" stop-color="#F0F5F9" stop-opacity="0.5"/>
</linearGradient>
<linearGradient id="paint34_linear_476_11335" x1="-179.164" y1="163.317" x2="655.986" y2="163.317" gradientUnits="userSpaceOnUse">
<stop offset="0.11" stop-color="#F7FAFE" stop-opacity="0"/>
<stop offset="0.445" stop-color="#DEEEFD"/>
<stop offset="1" stop-color="#F0F5F9" stop-opacity="0.5"/>
</linearGradient>
<linearGradient id="paint35_linear_476_11335" x1="-179.397" y1="163.967" x2="658.483" y2="163.967" gradientUnits="userSpaceOnUse">
<stop offset="0.11" stop-color="#F7FAFE" stop-opacity="0"/>
<stop offset="0.445" stop-color="#DEEEFD"/>
<stop offset="1" stop-color="#F0F5F9" stop-opacity="0.5"/>
</linearGradient>
<clipPath id="clip0_476_11335">
<rect width="13.2484" height="13.2484" fill="white" transform="translate(329.533 60.6699)"/>
</clipPath>
</defs>
</svg>
