<svg width="167" height="102" viewBox="0 0 167 102" fill="none" xmlns="http://www.w3.org/2000/svg">
<path fill-rule="evenodd" clip-rule="evenodd" d="M160 15C163.866 15 167 18.134 167 22C167 25.866 163.866 29 160 29H120C123.866 29 127 32.134 127 36C127 39.866 123.866 43 120 43H142C145.866 43 149 46.134 149 50C149 53.866 145.866 57 142 57H131.826C126.952 57 123 60.134 123 64C123 66.5773 125 68.9107 129 71C132.866 71 136 74.134 136 78C136 81.866 132.866 85 129 85H46C42.134 85 39 81.866 39 78C39 74.134 42.134 71 46 71H7C3.13401 71 0 67.866 0 64C0 60.134 3.13401 57 7 57H47C50.866 57 54 53.866 54 50C54 46.134 50.866 43 47 43H22C18.134 43 15 39.866 15 36C15 32.134 18.134 29 22 29H62C58.134 29 55 25.866 55 22C55 18.134 58.134 15 62 15H160ZM160 43C163.866 43 167 46.134 167 50C167 53.866 163.866 57 160 57C156.134 57 153 53.866 153 50C153 46.134 156.134 43 160 43Z" fill="#F0F0F0"/>
<path fill-rule="evenodd" clip-rule="evenodd" d="M106.671 14L115.973 81.8427L116.809 88.649C117.078 90.8417 115.519 92.8375 113.326 93.1067L54.766 100.297C52.5733 100.566 50.5776 99.007 50.3083 96.8143L41.2926 23.3868C41.158 22.2904 41.9376 21.2925 43.0339 21.1579C43.0408 21.1571 43.0478 21.1563 43.0547 21.1555L47.9131 20.6105M51.8416 20.1698L56.4287 19.6553L51.8416 20.1698Z" fill="white"/>
<path d="M107.91 13.8302C107.816 13.1463 107.185 12.6678 106.502 12.7616C105.818 12.8554 105.339 13.4859 105.433 14.1698L107.91 13.8302ZM115.973 81.8427L117.214 81.6904C117.213 81.6846 117.212 81.6788 117.212 81.6729L115.973 81.8427ZM116.809 88.649L118.05 88.4967L116.809 88.649ZM113.326 93.1067L113.479 94.3474L113.326 93.1067ZM54.766 100.297L54.9183 101.538L54.766 100.297ZM50.3083 96.8143L51.549 96.662L50.3083 96.8143ZM43.0547 21.1555L43.1941 22.3977L43.0547 21.1555ZM48.0524 21.8527C48.7385 21.7758 49.2322 21.1572 49.1553 20.4712C49.0783 19.7851 48.4598 19.2913 47.7737 19.3683L48.0524 21.8527ZM51.7023 18.9276C51.0162 19.0046 50.5224 19.6231 50.5994 20.3092C50.6764 20.9952 51.2949 21.489 51.9809 21.412L51.7023 18.9276ZM56.568 20.8975C57.2541 20.8205 57.7478 20.202 57.6709 19.5159C57.5939 18.8299 56.9754 18.3361 56.2893 18.4131L56.568 20.8975ZM105.433 14.1698L114.735 82.0125L117.212 81.6729L107.91 13.8302L105.433 14.1698ZM114.733 81.9951L115.568 88.8014L118.05 88.4967L117.214 81.6904L114.733 81.9951ZM115.568 88.8014C115.753 90.3088 114.681 91.6809 113.174 91.866L113.479 94.3474C116.356 93.994 118.403 91.3746 118.05 88.4967L115.568 88.8014ZM113.174 91.866L54.6137 99.0563L54.9183 101.538L113.479 94.3474L113.174 91.866ZM54.6137 99.0563C53.1062 99.2414 51.7341 98.1694 51.549 96.662L49.0677 96.9666C49.421 99.8445 52.0404 101.891 54.9183 101.538L54.6137 99.0563ZM51.549 96.662L42.5332 23.2344L40.0519 23.5391L49.0677 96.9666L51.549 96.662ZM42.5332 23.2344C42.4828 22.8233 42.7751 22.4491 43.1863 22.3986L42.8816 19.9173C41.1 20.136 39.8331 21.7576 40.0519 23.5391L42.5332 23.2344ZM43.1863 22.3986C43.1889 22.3983 43.1915 22.398 43.1941 22.3977L42.9154 19.9133C42.9041 19.9145 42.8928 19.9159 42.8816 19.9173L43.1863 22.3986ZM43.1941 22.3977L48.0524 21.8527L47.7737 19.3683L42.9154 19.9133L43.1941 22.3977ZM51.9809 21.412L56.568 20.8975L56.2893 18.4131L51.7023 18.9276L51.9809 21.412Z" fill="#F4597A"/>
<path fill-rule="evenodd" clip-rule="evenodd" d="M104.14 18.2692L112.559 79.7529L113.317 85.9212C113.561 87.9083 112.167 89.7146 110.203 89.9557L57.761 96.3948C55.7974 96.6359 54.0079 95.2204 53.7639 93.2333L45.6139 26.8568C45.4792 25.7605 46.2589 24.7626 47.3552 24.628L53.8428 23.8314" fill="#FFF1F4"/>
<path d="M60.9214 4C60.9214 2.48122 62.1526 1.25 63.6714 1.25H109.228C109.957 1.25 110.656 1.5395 111.172 2.05485L124.615 15.4898C125.131 16.0056 125.421 16.7053 125.421 17.4349V80C125.421 81.5188 124.19 82.75 122.671 82.75H63.6714C62.1526 82.75 60.9214 81.5188 60.9214 80V4Z" fill="white" stroke="#F4597A" stroke-width="2.5"/>
<path d="M109.671 2.40283V14C109.671 15.6569 111.015 17 112.671 17H120.605" stroke="#F4597A" stroke-width="2.5" stroke-linecap="round" stroke-linejoin="round"/>
</svg>
