<svg width="17" height="18" viewBox="0 0 17 18" fill="none" xmlns="http://www.w3.org/2000/svg">
<path d="M12.6 0C12.105 0 11.7 0.405 11.7 0.9V1.8H4.5V0.9C4.5 0.405 4.095 0 3.6 0C3.105 0 2.7 0.405 2.7 0.9V1.8H1.8C0.801 1.8 0.00899999 2.61 0.00899999 3.6L0 16.2C0 16.6774 0.189642 17.1352 0.527208 17.4728C0.864773 17.8104 1.32261 18 1.8 18H14.4C15.39 18 16.2 17.19 16.2 16.2V3.6C16.2 2.61 15.39 1.8 14.4 1.8H13.5V0.9C13.5 0.405 13.095 0 12.6 0ZM14.4 16.2H1.8V7.2H14.4V16.2ZM7.2 9.9C7.2 9.405 7.605 9 8.1 9C8.595 9 9 9.405 9 9.9C9 10.395 8.595 10.8 8.1 10.8C7.605 10.8 7.2 10.395 7.2 9.9ZM3.6 9.9C3.6 9.405 4.005 9 4.5 9C4.995 9 5.4 9.405 5.4 9.9C5.4 10.395 4.995 10.8 4.5 10.8C4.005 10.8 3.6 10.395 3.6 9.9ZM10.8 9.9C10.8 9.405 11.205 9 11.7 9C12.195 9 12.6 9.405 12.6 9.9C12.6 10.395 12.195 10.8 11.7 10.8C11.205 10.8 10.8 10.395 10.8 9.9ZM7.2 13.5C7.2 13.005 7.605 12.6 8.1 12.6C8.595 12.6 9 13.005 9 13.5C9 13.995 8.595 14.4 8.1 14.4C7.605 14.4 7.2 13.995 7.2 13.5ZM3.6 13.5C3.6 13.005 4.005 12.6 4.5 12.6C4.995 12.6 5.4 13.005 5.4 13.5C5.4 13.995 4.995 14.4 4.5 14.4C4.005 14.4 3.6 13.995 3.6 13.5ZM10.8 13.5C10.8 13.005 11.205 12.6 11.7 12.6C12.195 12.6 12.6 13.005 12.6 13.5C12.6 13.995 12.195 14.4 11.7 14.4C11.205 14.4 10.8 13.995 10.8 13.5Z" fill="white"/>
</svg>
