<svg width="40" height="40" viewBox="0 0 40 40" fill="none" xmlns="http://www.w3.org/2000/svg">
<rect width="40" height="40" rx="20" fill="#EDF6FF"/>
<path d="M28.0297 14.7641L22.9859 9.72031C22.8453 9.57969 22.6555 9.5 22.4562 9.5H12.5C12.0852 9.5 11.75 9.83516 11.75 10.25V29.75C11.75 30.1648 12.0852 30.5 12.5 30.5H27.5C27.9148 30.5 28.25 30.1648 28.25 29.75V15.2961C28.25 15.0969 28.1703 14.9047 28.0297 14.7641ZM26.5203 15.6406H22.1094V11.2297L26.5203 15.6406ZM26.5625 28.8125H13.4375V11.1875H20.5156V16.25C20.5156 16.5111 20.6193 16.7615 20.8039 16.9461C20.9885 17.1307 21.2389 17.2344 21.5 17.2344H26.5625V28.8125ZM20.3773 19.0625H19.6227C19.4937 19.0625 19.3812 19.1492 19.3508 19.2758L18.1859 23.9375L17.1055 19.2805C17.075 19.1539 16.9625 19.0625 16.8312 19.0625H16.0016C15.9585 19.0626 15.9159 19.0725 15.8773 19.0916C15.8386 19.1107 15.8049 19.1384 15.7786 19.1726C15.7523 19.2068 15.7343 19.2465 15.7258 19.2888C15.7173 19.3311 15.7186 19.3747 15.7297 19.4164L17.4688 25.8852C17.5016 26.007 17.6141 26.0938 17.7406 26.0938H18.4906C18.6172 26.0938 18.7297 26.0094 18.7625 25.8852L20 21.268L21.2375 25.8852C21.2703 26.007 21.3828 26.0938 21.5094 26.0938H22.2547C22.3813 26.0938 22.4937 26.0094 22.5266 25.8852L24.2703 19.4164C24.2813 19.3747 24.2825 19.3311 24.274 19.2889C24.2655 19.2467 24.2474 19.2069 24.2212 19.1728C24.1949 19.1386 24.1612 19.1109 24.1226 19.0918C24.084 19.0727 24.0415 19.0627 23.9984 19.0625H23.1641C23.0328 19.0625 22.9203 19.1539 22.8898 19.2805L21.8164 23.9469L20.6492 19.2758C20.6188 19.1492 20.5062 19.0625 20.3773 19.0625Z" fill="white"/>
<path d="M28.0297 14.7641L22.9859 9.72031C22.8453 9.57969 22.6555 9.5 22.4562 9.5H12.5C12.0852 9.5 11.75 9.83516 11.75 10.25V29.75C11.75 30.1648 12.0852 30.5 12.5 30.5H27.5C27.9148 30.5 28.25 30.1648 28.25 29.75V15.2961C28.25 15.0969 28.1703 14.9047 28.0297 14.7641ZM26.5203 15.6406H22.1094V11.2297L26.5203 15.6406Z" fill="#4196F0"/>
<path d="M20.3714 18.2856H19.6167C19.4878 18.2856 19.3753 18.3724 19.3448 18.4989L18.18 23.1606L17.0995 18.5036C17.069 18.3771 16.9565 18.2856 16.8253 18.2856H15.9956C15.9525 18.2857 15.9099 18.2957 15.8713 18.3148C15.8326 18.3338 15.7989 18.3616 15.7726 18.3957C15.7463 18.4299 15.7283 18.4697 15.7198 18.512C15.7113 18.5542 15.7127 18.5979 15.7237 18.6396L17.4628 25.1083C17.4956 25.2302 17.6081 25.3169 17.7346 25.3169H18.4846C18.6112 25.3169 18.7237 25.2325 18.7565 25.1083L19.994 20.4911L21.2315 25.1083C21.2643 25.2302 21.3768 25.3169 21.5034 25.3169H22.2487C22.3753 25.3169 22.4878 25.2325 22.5206 25.1083L24.2643 18.6396C24.2753 18.5979 24.2765 18.5543 24.268 18.512C24.2595 18.4698 24.2414 18.4301 24.2152 18.3959C24.1889 18.3618 24.1552 18.3341 24.1166 18.3149C24.078 18.2958 24.0355 18.2858 23.9924 18.2856H23.1581C23.0268 18.2856 22.9143 18.3771 22.8839 18.5036L21.8104 23.17L20.6432 18.4989C20.6128 18.3724 20.5003 18.2856 20.3714 18.2856Z" fill="white"/>
</svg>
