<svg width="40" height="40" viewBox="0 0 40 40" fill="none" xmlns="http://www.w3.org/2000/svg">
<rect width="40" height="40" rx="20" fill="#F02F51"/>
<path d="M17.003 13.9999C17.003 13.2051 17.3188 12.4428 17.8808 11.8807C18.4428 11.3187 19.2051 11.0029 20 11.0029C20.7949 11.0029 21.5572 11.3187 22.1192 11.8807C22.6812 12.4428 22.997 13.2051 22.997 13.9999C22.997 14.7948 22.6812 15.5571 22.1192 16.1191C21.5572 16.6812 20.7949 16.9969 20 16.9969C19.2051 16.9969 18.4428 16.6812 17.8808 16.1191C17.3188 15.5571 17.003 14.7948 17.003 13.9999ZM20 12.5029C19.8034 12.5029 19.6087 12.5417 19.4271 12.6169C19.2455 12.6921 19.0805 12.8024 18.9415 12.9414C18.8025 13.0804 18.6922 13.2454 18.617 13.4271C18.5417 13.6087 18.503 13.8033 18.503 13.9999C18.503 14.1965 18.5417 14.3912 18.617 14.5728C18.6922 14.7544 18.8025 14.9195 18.9415 15.0585C19.0805 15.1975 19.2455 15.3077 19.4271 15.383C19.6087 15.4582 19.8034 15.4969 20 15.4969C20.397 15.4969 20.7778 15.3392 21.0585 15.0585C21.3393 14.7777 21.497 14.397 21.497 13.9999C21.497 13.6029 21.3393 13.2221 21.0585 12.9414C20.7778 12.6606 20.397 12.5029 20 12.5029ZM24.5 14.7499C24.5 14.4545 24.5582 14.1619 24.6713 13.8889C24.7843 13.6159 24.9501 13.3679 25.159 13.1589C25.3679 12.95 25.616 12.7843 25.889 12.6712C26.1619 12.5581 26.4545 12.4999 26.75 12.4999C27.0455 12.4999 27.3381 12.5581 27.611 12.6712C27.884 12.7843 28.1321 12.95 28.341 13.1589C28.5499 13.3679 28.7157 13.6159 28.8287 13.8889C28.9418 14.1619 29 14.4545 29 14.7499C29 15.3467 28.7629 15.919 28.341 16.3409C27.919 16.7629 27.3467 16.9999 26.75 16.9999C26.1533 16.9999 25.581 16.7629 25.159 16.3409C24.7371 15.919 24.5 15.3467 24.5 14.7499ZM26.75 13.9999C26.5511 13.9999 26.3603 14.0789 26.2197 14.2196C26.079 14.3603 26 14.551 26 14.7499C26 14.9488 26.079 15.1396 26.2197 15.2803C26.3603 15.4209 26.5511 15.4999 26.75 15.4999C26.9489 15.4999 27.1397 15.4209 27.2803 15.2803C27.421 15.1396 27.5 14.9488 27.5 14.7499C27.5 14.551 27.421 14.3603 27.2803 14.2196C27.1397 14.0789 26.9489 13.9999 26.75 13.9999ZM13.25 12.4999C12.6533 12.4999 12.081 12.737 11.659 13.1589C11.2371 13.5809 11 14.1532 11 14.7499C11 15.3467 11.2371 15.919 11.659 16.3409C12.081 16.7629 12.6533 16.9999 13.25 16.9999C13.8467 16.9999 14.419 16.7629 14.841 16.3409C15.2629 15.919 15.5 15.3467 15.5 14.7499C15.5 14.1532 15.2629 13.5809 14.841 13.1589C14.419 12.737 13.8467 12.4999 13.25 12.4999ZM12.5 14.7499C12.5 14.551 12.579 14.3603 12.7197 14.2196C12.8603 14.0789 13.0511 13.9999 13.25 13.9999C13.4489 13.9999 13.6397 14.0789 13.7803 14.2196C13.921 14.3603 14 14.551 14 14.7499C14 14.9488 13.921 15.1396 13.7803 15.2803C13.6397 15.4209 13.4489 15.4999 13.25 15.4999C13.0511 15.4999 12.8603 15.4209 12.7197 15.2803C12.579 15.1396 12.5 14.9488 12.5 14.7499ZM14.402 18.4999C14.1387 18.956 14 19.4733 14 19.9999H11V23.7499C10.9999 24.123 11.0925 24.4903 11.2697 24.8187C11.4468 25.1471 11.7028 25.4263 12.0146 25.6312C12.3264 25.836 12.6843 25.9601 13.056 25.9923C13.4277 26.0245 13.8016 25.9637 14.144 25.8154C14.255 26.3119 14.429 26.7859 14.654 27.2284C14.0847 27.4583 13.4677 27.5449 12.8571 27.4805C12.2465 27.4162 11.6611 27.2029 11.1522 26.8595C10.6433 26.516 10.2265 26.0529 9.93841 25.5107C9.65034 24.9685 9.4998 24.3639 9.5 23.7499V19.9999C9.5 19.6021 9.65804 19.2206 9.93934 18.9393C10.2206 18.658 10.6022 18.4999 11 18.4999H14.402ZM25.346 27.2284C25.9153 27.4583 26.5323 27.5449 27.1429 27.4805C27.7535 27.4162 28.3389 27.2029 28.8478 26.8595C29.3567 26.516 29.7735 26.0529 30.0616 25.5107C30.3497 24.9685 30.5002 24.3639 30.5 23.7499V19.9999C30.5 19.6021 30.342 19.2206 30.0607 18.9393C29.7794 18.658 29.3978 18.4999 29 18.4999H25.598C25.853 18.9409 26 19.4524 26 19.9999H29V23.7499C29.0001 24.123 28.9075 24.4903 28.7304 24.8187C28.5532 25.1471 28.2973 25.4263 27.9854 25.6312C27.6736 25.836 27.3157 25.9601 26.944 25.9923C26.5723 26.0245 26.1984 25.9637 25.856 25.8154C25.742 26.3134 25.572 26.7844 25.346 27.2284ZM17 18.4984C16.6022 18.4984 16.2206 18.6565 15.9393 18.9378C15.658 19.2191 15.5 19.6006 15.5 19.9984V24.4999C15.5 25.6934 15.9741 26.838 16.818 27.6819C17.6619 28.5258 18.8065 28.9999 20 28.9999C21.1935 28.9999 22.3381 28.5258 23.182 27.6819C24.0259 26.838 24.5 25.6934 24.5 24.4999V19.9999C24.5 19.6021 24.342 19.2206 24.0607 18.9393C23.7794 18.658 23.3978 18.4999 23 18.4999L17 18.4984ZM17 19.9984H23V24.4999C23 25.2956 22.6839 26.0586 22.1213 26.6213C21.5587 27.1839 20.7956 27.4999 20 27.4999C19.2044 27.4999 18.4413 27.1839 17.8787 26.6213C17.3161 26.0586 17 25.2956 17 24.4999V19.9984Z" fill="white"/>
</svg>
