<svg width="40" height="40" viewBox="0 0 40 40" fill="none" xmlns="http://www.w3.org/2000/svg">
<rect width="40" height="40" rx="20" fill="#00A773"/>
<path d="M21.25 15C21.25 15.2652 21.1446 15.5196 20.9571 15.7071C20.7696 15.8946 20.5152 16 20.25 16C19.9848 16 19.7304 15.8946 19.5429 15.7071C19.3554 15.5196 19.25 15.2652 19.25 15C19.25 14.7348 19.3554 14.4804 19.5429 14.2929C19.7304 14.1054 19.9848 14 20.25 14C20.5152 14 20.7696 14.1054 20.9571 14.2929C21.1446 14.4804 21.25 14.7348 21.25 15ZM19.5 17.75V22.75C19.5 22.9489 19.579 23.1397 19.7197 23.2803C19.8603 23.421 20.0511 23.5 20.25 23.5C20.4489 23.5 20.6397 23.421 20.7803 23.2803C20.921 23.1397 21 22.9489 21 22.75V17.75C21 17.5511 20.921 17.3603 20.7803 17.2197C20.6397 17.079 20.4489 17 20.25 17C20.0511 17 19.8603 17.079 19.7197 17.2197C19.579 17.3603 19.5 17.5511 19.5 17.75ZM12 12.5C12 11.837 12.2634 11.2011 12.7322 10.7322C13.2011 10.2634 13.837 10 14.5 10H26C26.3283 10 26.6534 10.0647 26.9567 10.1903C27.26 10.3159 27.5356 10.5001 27.7678 10.7322C27.9999 10.9644 28.1841 11.24 28.3097 11.5433C28.4353 11.8466 28.5 12.1717 28.5 12.5V26.75C28.5 26.9489 28.421 27.1397 28.2803 27.2803C28.1397 27.421 27.9489 27.5 27.75 27.5H13.5C13.5 27.7652 13.6054 28.0196 13.7929 28.2071C13.9804 28.3946 14.2348 28.5 14.5 28.5H27.75C27.9489 28.5 28.1397 28.579 28.2803 28.7197C28.421 28.8603 28.5 29.0511 28.5 29.25C28.5 29.4489 28.421 29.6397 28.2803 29.7803C28.1397 29.921 27.9489 30 27.75 30H14.5C13.837 30 13.2011 29.7366 12.7322 29.2678C12.2634 28.7989 12 28.163 12 27.5V12.5ZM27 26V12.5C27 12.2348 26.8946 11.9804 26.7071 11.7929C26.5196 11.6054 26.2652 11.5 26 11.5H14.5C14.2348 11.5 13.9804 11.6054 13.7929 11.7929C13.6054 11.9804 13.5 12.2348 13.5 12.5V26H27Z" fill="white"/>
</svg>
