<svg width="167" height="150" viewBox="0 0 167 150" fill="none" xmlns="http://www.w3.org/2000/svg">
<path fill-rule="evenodd" clip-rule="evenodd" d="M160 40C163.866 40 167 43.134 167 47C167 50.866 163.866 54 160 54H120C123.866 54 127 57.134 127 61C127 64.866 123.866 68 120 68H142C145.866 68 149 71.134 149 75C149 78.866 145.866 82 142 82H131.826C126.952 82 123 85.134 123 89C123 91.5773 125 93.9107 129 96C132.866 96 136 99.134 136 103C136 106.866 132.866 110 129 110H46C42.134 110 39 106.866 39 103C39 99.134 42.134 96 46 96H7C3.13401 96 0 92.866 0 89C0 85.134 3.13401 82 7 82H47C50.866 82 54 78.866 54 75C54 71.134 50.866 68 47 68H22C18.134 68 15 64.866 15 61C15 57.134 18.134 54 22 54H62C58.134 54 55 50.866 55 47C55 43.134 58.134 40 62 40H160ZM160 68C163.866 68 167 71.134 167 75C167 78.866 163.866 82 160 82C156.134 82 153 78.866 153 75C153 71.134 156.134 68 160 68Z" fill="#F0F0F0"/>
<g clip-path="url(#clip0_17169_140508)">
<path d="M117 46H58V105H117V46Z" fill="white" fill-opacity="0.01"/>
<path d="M75.2083 87.7917C78.6026 87.7917 81.3542 85.0401 81.3542 81.6458C81.3542 78.2516 78.6026 75.5 75.2083 75.5C71.8141 75.5 69.0625 78.2516 69.0625 81.6458C69.0625 85.0401 71.8141 87.7917 75.2083 87.7917Z" stroke="#EE0033" stroke-width="2" stroke-linecap="round" stroke-linejoin="round"/>
<path d="M99.7923 87.7917C103.187 87.7917 105.938 85.0401 105.938 81.6458C105.938 78.2516 103.187 75.5 99.7923 75.5C96.3981 75.5 93.6465 78.2516 93.6465 81.6458C93.6465 85.0401 96.3981 87.7917 99.7923 87.7917Z" stroke="#EE0033" stroke-width="2" stroke-linecap="round" stroke-linejoin="round"/>
<path d="M87.4993 63.2087C90.8936 63.2087 93.6452 60.4571 93.6452 57.0628C93.6452 53.6686 90.8936 50.917 87.4993 50.917C84.1051 50.917 81.3535 53.6686 81.3535 57.0628C81.3535 60.4571 84.1051 63.2087 87.4993 63.2087Z" stroke="#EE0033" stroke-width="2" stroke-linecap="round" stroke-linejoin="round"/>
<path d="M87.4994 100.084C87.4994 93.2952 81.9961 87.792 75.2077 87.792C68.4192 87.792 62.916 93.2952 62.916 100.084" stroke="#EE0033" stroke-width="2" stroke-linecap="round" stroke-linejoin="round"/>
<path d="M112.083 100.084C112.083 93.2952 106.58 87.792 99.7917 87.792C93.0032 87.792 87.5 93.2952 87.5 100.084" stroke="#EE0033" stroke-width="2" stroke-linecap="round" stroke-linejoin="round"/>
<path d="M99.7923 75.4997C99.7923 68.7112 94.2891 63.208 87.5007 63.208C80.7122 63.208 75.209 68.7112 75.209 75.4997" stroke="#EE0033" stroke-width="2" stroke-linecap="round" stroke-linejoin="round"/>
</g>
<defs>
<clipPath id="clip0_17169_140508">
<rect width="59" height="59" fill="white" transform="translate(58 46)"/>
</clipPath>
</defs>
</svg>
