<svg width="24" height="24" viewBox="0 0 24 24" fill="none" xmlns="http://www.w3.org/2000/svg">
<path d="M3 8H7M21 8H11M3 15H15M21 15H19" stroke="#848E94" stroke-width="2" stroke-linecap="round"/>
<path d="M9 10C10.1046 10 11 9.10457 11 8C11 6.89543 10.1046 6 9 6C7.89543 6 7 6.89543 7 8C7 9.10457 7.89543 10 9 10Z" stroke="#848E94" stroke-width="2" stroke-linecap="round"/>
<path d="M17 17C18.1046 17 19 16.1046 19 15C19 13.8954 18.1046 13 17 13C15.8954 13 15 13.8954 15 15C15 16.1046 15.8954 17 17 17Z" stroke="#848E94" stroke-width="2" stroke-linecap="round"/>
</svg>
