<svg width="20" height="26" viewBox="0 0 20 26" fill="none" xmlns="http://www.w3.org/2000/svg">
<path d="M19.368 6.89141L13.4836 1.00703C13.3195 0.842969 13.098 0.75 12.8656 0.75H1.25C0.766016 0.75 0.375 1.14102 0.375 1.625V24.375C0.375 24.859 0.766016 25.25 1.25 25.25H18.75C19.234 25.25 19.625 24.859 19.625 24.375V7.51211C19.625 7.27969 19.532 7.05547 19.368 6.89141ZM17.607 7.91406H12.4609V2.76797L17.607 7.91406ZM17.6562 23.2812H2.34375V2.71875H10.6016V8.625C10.6016 8.92958 10.7226 9.22169 10.9379 9.43707C11.1533 9.65244 11.4454 9.77344 11.75 9.77344H17.6562V23.2812ZM10.0574 14.8621L8.36758 12.0621C8.30742 11.9637 8.20078 11.9035 8.08594 11.9035H7.03594C6.97305 11.9035 6.91289 11.9199 6.86094 11.9555C6.70781 12.0512 6.66133 12.2535 6.75977 12.4094L9.01016 15.975L6.72969 19.6062C6.6987 19.6561 6.68159 19.7132 6.68011 19.7719C6.67863 19.8305 6.69285 19.8885 6.72129 19.9398C6.74973 19.9911 6.79135 20.0338 6.84187 20.0637C6.89238 20.0935 6.94994 20.1093 7.00859 20.1094H7.95195C8.0668 20.1094 8.1707 20.0492 8.23086 19.9535L9.94531 17.1781L11.6488 19.9508C11.709 20.0492 11.8156 20.1066 11.9277 20.1066H12.9531C13.016 20.1066 13.0762 20.0875 13.1309 20.0547C13.284 19.9562 13.3277 19.7539 13.2293 19.6008L10.9324 16.0352L13.2648 12.4121C13.2964 12.3625 13.3141 12.3052 13.3161 12.2464C13.318 12.1876 13.3042 12.1294 13.276 12.0777C13.2478 12.0261 13.2063 11.9829 13.1557 11.9528C13.1052 11.9226 13.0475 11.9065 12.9887 11.9062H12.0125C11.8977 11.9062 11.791 11.9664 11.7309 12.0648L10.0574 14.8621Z" fill="#217748"/>
</svg>
