<svg width="20" height="20" viewBox="0 0 20 20" fill="none" xmlns="http://www.w3.org/2000/svg">
<g clip-path="url(#clip0_789_12285)">
<path d="M9.84546 8.45455L12.7273 11.3273V11.1818C12.7273 10.4585 12.4399 9.76481 11.9285 9.25334C11.417 8.74188 10.7233 8.45455 10 8.45455H9.84546ZM5.93636 9.18182L7.34545 10.5909C7.3 10.7818 7.27273 10.9727 7.27273 11.1818C7.27273 11.9051 7.56006 12.5988 8.07153 13.1103C8.58299 13.6218 9.27668 13.9091 10 13.9091C10.2 13.9091 10.4 13.8818 10.5909 13.8364L12 15.2455C11.3909 15.5455 10.7182 15.7273 10 15.7273C8.79447 15.7273 7.63832 15.2484 6.78588 14.3959C5.93344 13.5435 5.45455 12.3873 5.45455 11.1818C5.45455 10.4636 5.63636 9.79091 5.93636 9.18182ZM0.909091 4.15455L2.98182 6.22727L3.39091 6.63636C1.89091 7.81818 0.709091 9.36364 0 11.1818C1.57273 15.1727 5.45455 18 10 18C11.4091 18 12.7545 17.7273 13.9818 17.2364L14.3727 17.6182L17.0273 20.2727L18.1818 19.1182L2.06364 3M10 6.63636C11.2055 6.63636 12.3617 7.11526 13.2141 7.9677C14.0666 8.82013 14.5455 9.97629 14.5455 11.1818C14.5455 11.7636 14.4273 12.3273 14.2182 12.8364L16.8818 15.5C18.2455 14.3636 19.3364 12.8727 20 11.1818C18.4273 7.19091 14.5455 4.36364 10 4.36364C8.72727 4.36364 7.50909 4.59091 6.36364 5L8.33636 6.95455C8.85455 6.75454 9.40909 6.63636 10 6.63636Z" fill="white"/>
</g>
<defs>
<clipPath id="clip0_789_12285">
<rect width="20" height="20" fill="white"/>
</clipPath>
</defs>
</svg>
