<svg width="40" height="40" viewBox="0 0 40 40" fill="none" xmlns="http://www.w3.org/2000/svg">
<rect width="40" height="40" rx="20" fill="#EDFFF4"/>
<path d="M28.0297 14.7641L22.9859 9.72031C22.8453 9.57969 22.6555 9.5 22.4562 9.5H12.5C12.0852 9.5 11.75 9.83516 11.75 10.25V29.75C11.75 30.1648 12.0852 30.5 12.5 30.5H27.5C27.9148 30.5 28.25 30.1648 28.25 29.75V15.2961C28.25 15.0969 28.1703 14.9047 28.0297 14.7641ZM26.5203 15.6406H22.1094V11.2297L26.5203 15.6406Z" fill="#00A773"/>
<path d="M20.0493 20.8216L18.6009 18.4216C18.5493 18.3372 18.4579 18.2856 18.3595 18.2856H17.4595C17.4056 18.2856 17.354 18.2997 17.3095 18.3302C17.1783 18.4122 17.1384 18.5856 17.2228 18.7192L19.1517 21.7755L17.197 24.888C17.1704 24.9307 17.1558 24.9797 17.1545 25.0299C17.1532 25.0802 17.1654 25.1299 17.1898 25.1739C17.2142 25.2178 17.2499 25.2545 17.2932 25.2801C17.3365 25.3056 17.3858 25.3191 17.4361 25.3192H18.2447C18.3431 25.3192 18.4322 25.2677 18.4837 25.1856L19.9533 22.8067L21.4134 25.1833C21.465 25.2677 21.5564 25.3169 21.6525 25.3169H22.5314C22.5853 25.3169 22.6368 25.3005 22.6837 25.2724C22.815 25.188 22.8525 25.0146 22.7681 24.8833L20.7993 21.8271L22.7986 18.7216C22.8256 18.679 22.8408 18.63 22.8425 18.5796C22.8441 18.5292 22.8323 18.4792 22.8081 18.435C22.7839 18.3907 22.7484 18.3537 22.705 18.3279C22.6617 18.302 22.6123 18.2882 22.5618 18.288H21.7251C21.6267 18.288 21.5353 18.3396 21.4837 18.4239L20.0493 20.8216Z" fill="white"/>
</svg>
