<svg width="48" height="48" viewBox="0 0 48 48" fill="none" xmlns="http://www.w3.org/2000/svg">
<path d="M25.8333 40.001V37.3343C25.8333 35.9198 25.2714 34.5633 24.2712 33.5631C23.271 32.5629 21.9145 32.001 20.5 32.001H9.83333C8.41885 32.001 7.06229 32.5629 6.0621 33.5631C5.0619 34.5633 4.5 35.9198 4.5 37.3343V40.001" stroke="#EAECEF" stroke-opacity="0.9" stroke-linecap="round" stroke-linejoin="round"/>
<path d="M15.1668 26.6676C18.1123 26.6676 20.5002 24.2798 20.5002 21.3343C20.5002 18.3888 18.1123 16.001 15.1668 16.001C12.2213 16.001 9.8335 18.3888 9.8335 21.3343C9.8335 24.2798 12.2213 26.6676 15.1668 26.6676Z" stroke="#EAECEF" stroke-opacity="0.9" stroke-linecap="round" stroke-linejoin="round"/>
<path d="M43.5003 32.001V29.3343C43.5003 27.9198 42.9384 26.5633 41.9382 25.5631C40.938 24.5629 39.5815 24.001 38.167 24.001H27.5003C26.0858 24.001 24.7293 24.5629 23.7291 25.5631C22.7289 26.5633 22.167 27.9198 22.167 29.3343V32.001" stroke="#EAECEF" stroke-opacity="0.9" stroke-linecap="round" stroke-linejoin="round"/>
<path d="M32.8333 18.6676C35.7789 18.6676 38.1667 16.2798 38.1667 13.3343C38.1667 10.3888 35.7789 8.00098 32.8333 8.00098C29.8878 8.00098 27.5 10.3888 27.5 13.3343C27.5 16.2798 29.8878 18.6676 32.8333 18.6676Z" stroke="#EAECEF" stroke-opacity="0.9" stroke-linecap="round" stroke-linejoin="round"/>
<path d="M32.833 28.001V38.6676" stroke="#EAECEF" stroke-opacity="0.9" stroke-linecap="round"/>
<path d="M38.167 33.3345L27.5003 33.3345" stroke="#EAECEF" stroke-opacity="0.9" stroke-linecap="round"/>
</svg>
