<svg width="40" height="40" viewBox="0 0 40 40" fill="none" xmlns="http://www.w3.org/2000/svg">
<rect width="40" height="40" rx="20" fill="#FFF1F4"/>
<path d="M28.0297 14.7641L22.9859 9.72031C22.8453 9.57969 22.6555 9.5 22.4562 9.5H12.5C12.0852 9.5 11.75 9.83516 11.75 10.25V29.75C11.75 30.1648 12.0852 30.5 12.5 30.5H27.5C27.9148 30.5 28.25 30.1648 28.25 29.75V15.2961C28.25 15.0969 28.1703 14.9047 28.0297 14.7641ZM26.5203 15.6406H22.1094V11.2297L26.5203 15.6406Z" fill="#F02F51"/>
<path d="M20.7508 21.045L20.759 21.007C20.9161 20.3592 21.1139 19.5515 20.9595 18.8196C20.8565 18.2423 20.4311 18.0173 20.068 18.001C19.6398 17.9821 19.2578 18.226 19.1629 18.5811C18.9841 19.2316 19.144 20.1207 19.4366 21.2537C19.0681 22.1319 18.4801 23.4085 18.0492 24.1675C17.2471 24.5822 16.1714 25.2219 16.0115 26.0296C15.979 26.1787 16.0169 26.3684 16.1063 26.5392C16.2066 26.7289 16.3665 26.8753 16.5534 26.9458C16.6347 26.9756 16.7323 27 16.8461 27C17.323 27 18.0953 26.6151 19.125 24.8478C19.2822 24.7963 19.4447 24.7421 19.6019 24.6879C20.3389 24.4385 21.1031 24.1783 21.7941 24.0618C22.5582 24.4711 23.428 24.734 24.0188 24.734C24.6041 24.734 24.8344 24.387 24.9211 24.1783C25.0729 23.8124 24.9997 23.3516 24.7531 23.105C24.3954 22.7526 23.5256 22.6604 22.1707 22.8285C21.5041 22.4219 21.0679 21.869 20.7508 21.045ZM17.7782 25.1623C17.4016 25.7098 17.1171 25.9836 16.9626 26.1028C17.1442 25.7694 17.4991 25.4171 17.7782 25.1623ZM20.152 18.779C20.2929 19.0202 20.2739 19.7493 20.1655 20.118C20.0327 19.5786 20.0138 18.8142 20.0924 18.7247C20.114 18.7275 20.133 18.7437 20.152 18.779ZM20.1086 22.0451C20.3986 22.5466 20.7644 22.9776 21.1681 23.2974C20.5828 23.4302 20.049 23.6498 19.5721 23.8449C19.4583 23.891 19.3472 23.9371 19.2388 23.9805C19.5992 23.3272 19.9 22.5873 20.1086 22.0451ZM24.325 23.8205C24.3277 23.826 24.3304 23.8341 24.3141 23.8449H24.3087L24.3033 23.8531C24.2816 23.8666 24.0594 23.9967 23.1029 23.62C24.203 23.5685 24.3223 23.8178 24.325 23.8205Z" fill="white"/>
</svg>
