<svg width="20" height="26" viewBox="0 0 20 26" fill="none" xmlns="http://www.w3.org/2000/svg">
<path d="M10.5277 14.7063L10.5359 14.668C10.6945 14.0145 10.8941 13.1996 10.7383 12.4613C10.6344 11.8789 10.2051 11.652 9.83867 11.6355C9.40664 11.6164 9.02109 11.8625 8.92539 12.2207C8.74492 12.877 8.90625 13.7738 9.20156 14.9168C8.82969 15.8027 8.23633 17.0906 7.80156 17.8562C6.99219 18.2746 5.90664 18.9199 5.74531 19.7348C5.7125 19.8852 5.75078 20.0766 5.84102 20.2488C5.94219 20.4402 6.10352 20.5879 6.29219 20.659C6.37422 20.6891 6.47266 20.7137 6.5875 20.7137C7.06875 20.7137 7.84805 20.3254 8.88711 18.5426C9.0457 18.4906 9.20977 18.4359 9.36836 18.3813C10.1121 18.1297 10.8832 17.8672 11.5805 17.7496C12.3516 18.1625 13.2293 18.4277 13.8254 18.4277C14.416 18.4277 14.6484 18.0777 14.7359 17.8672C14.8891 17.498 14.8152 17.0332 14.5664 16.7844C14.2055 16.4289 13.3277 16.3359 11.9605 16.5055C11.2879 16.0953 10.8477 15.5375 10.5277 14.7063ZM7.52813 18.8598C7.14805 19.4121 6.86094 19.6883 6.70508 19.8086C6.88828 19.4723 7.24648 19.1168 7.52813 18.8598ZM9.92344 12.4203C10.0656 12.6637 10.0465 13.3992 9.93711 13.7711C9.80313 13.227 9.78398 12.4559 9.86328 12.3656C9.88516 12.3684 9.9043 12.3848 9.92344 12.4203ZM9.87969 15.7152C10.1723 16.2211 10.5414 16.6559 10.9488 16.9785C10.3582 17.1125 9.81953 17.334 9.33828 17.5309C9.22344 17.5773 9.11133 17.6238 9.00195 17.6676C9.36563 17.0086 9.66914 16.2621 9.87969 15.7152ZM14.1344 17.5063C14.1371 17.5117 14.1398 17.5199 14.1234 17.5309H14.118L14.1125 17.5391C14.0906 17.5527 13.8664 17.684 12.9012 17.3039C14.0113 17.252 14.1316 17.5035 14.1344 17.5063ZM19.368 6.89141L13.4836 1.00703C13.3195 0.842969 13.098 0.75 12.8656 0.75H1.25C0.766016 0.75 0.375 1.14102 0.375 1.625V24.375C0.375 24.859 0.766016 25.25 1.25 25.25H18.75C19.234 25.25 19.625 24.859 19.625 24.375V7.51211C19.625 7.27969 19.532 7.05547 19.368 6.89141ZM17.607 7.91406H12.4609V2.76797L17.607 7.91406ZM17.6562 23.2812H2.34375V2.71875H10.6016V8.625C10.6016 8.92958 10.7226 9.22169 10.9379 9.43707C11.1533 9.65244 11.4454 9.77344 11.75 9.77344H17.6562V23.2812Z" fill="#EE0033"/>
</svg>
