<svg width="18" height="18" viewBox="0 0 18 18" fill="none" xmlns="http://www.w3.org/2000/svg">
<path d="M17 17.0004L12.95 12.9504M12.95 12.9504C13.6 12.3003 14.1157 11.5286 14.4675 10.6793C14.8193 9.82995 15.0003 8.91966 15.0003 8.00036C15.0003 7.08106 14.8193 6.17076 14.4675 5.32144C14.1157 4.47211 13.6 3.7004 12.95 3.05036C12.2999 2.40031 11.5282 1.88467 10.6789 1.53287C9.82959 1.18107 8.91929 1 7.99999 1C7.08069 1 6.17039 1.18107 5.32107 1.53287C4.47175 1.88467 3.70003 2.40031 3.04999 3.05036C1.73717 4.36318 0.999634 6.14375 0.999634 8.00036C0.999634 9.85697 1.73717 11.6375 3.04999 12.9504C4.36281 14.2632 6.14338 15.0007 7.99999 15.0007C9.8566 15.0007 11.6372 14.2632 12.95 12.9504Z" stroke="#848E94" stroke-width="2" stroke-linecap="round" stroke-linejoin="round"/>
</svg>
