<svg width="48" height="48" viewBox="0 0 48 48" fill="none" xmlns="http://www.w3.org/2000/svg">
<g filter="url(#filter0_i_4383_52623)">
<path d="M34.1379 5H14.8276C13.5472 5 12.3193 5.52678 11.414 6.46447C10.5086 7.40215 10 8.67392 10 10V40C10 41.3261 10.5086 42.5979 11.414 43.5355C12.3193 44.4732 13.5472 45 14.8276 45H34.1379C35.4183 45 36.6462 44.4732 37.5515 43.5355C38.4569 42.5979 38.9655 41.3261 38.9655 40V10C38.9655 8.67392 38.4569 7.40215 37.5515 6.46447C36.6462 5.52678 35.4183 5 34.1379 5Z" fill="url(#paint0_linear_4383_52623)"/>
</g>
<path d="M15.7496 14.6553H22.1813C23.07 14.6553 23.7931 15.274 23.7931 16.0346C23.7931 16.7951 23.07 17.4139 22.1813 17.4139H15.7496C14.8609 17.4139 14.1379 16.7951 14.1379 16.0346C14.1379 15.274 14.8609 14.6553 15.7496 14.6553Z" fill="#D2EAFF"/>
<path d="M23.5918 27.0692H15.7185C14.8469 27.0692 14.1379 26.4504 14.1379 25.6899C14.1379 24.9293 14.8469 24.3105 15.7185 24.3105H23.5918C24.4633 24.3105 25.1724 24.9293 25.1724 25.6899C25.1724 26.4504 24.4633 27.0692 23.5918 27.0692Z" fill="#D2EAFF"/>
<path d="M30.4347 22.931H15.7721C14.871 22.931 14.1379 22.3122 14.1379 21.5517C14.1379 20.7911 14.871 20.1724 15.7721 20.1724H30.4347C31.3358 20.1724 32.0689 20.7911 32.0689 21.5517C32.0536 22.3122 31.3205 22.931 30.4347 22.931Z" fill="#D2EAFF"/>
<rect x="20" y="22" width="24" height="24" rx="12" fill="#2F8BDF"/>
<mask id="mask0_4383_52623" style="mask-type:luminance" maskUnits="userSpaceOnUse" x="23" y="25" width="18" height="18">
<path d="M32 41.5C36.1423 41.5 39.5 38.1423 39.5 34C39.5 29.8578 36.1423 26.5 32 26.5C27.8578 26.5 24.5 29.8578 24.5 34C24.5 38.1423 27.8578 41.5 32 41.5Z" fill="white" stroke="white" stroke-width="2" stroke-linejoin="round"/>
<path d="M32.003 29.5V34.0038L35.1826 37.1838" stroke="black" stroke-width="2" stroke-linecap="round" stroke-linejoin="round"/>
</mask>
<g mask="url(#mask0_4383_52623)">
<path d="M22 24H42V44H22V24Z" fill="white"/>
</g>
<defs>
<filter id="filter0_i_4383_52623" x="10" y="5" width="28.9655" height="40" filterUnits="userSpaceOnUse" color-interpolation-filters="sRGB">
<feFlood flood-opacity="0" result="BackgroundImageFix"/>
<feBlend mode="normal" in="SourceGraphic" in2="BackgroundImageFix" result="shape"/>
<feColorMatrix in="SourceAlpha" type="matrix" values="0 0 0 0 0 0 0 0 0 0 0 0 0 0 0 0 0 0 127 0" result="hardAlpha"/>
<feOffset dy="1"/>
<feComposite in2="hardAlpha" operator="arithmetic" k2="-1" k3="1"/>
<feColorMatrix type="matrix" values="0 0 0 0 1 0 0 0 0 1 0 0 0 0 1 0 0 0 0.25 0"/>
<feBlend mode="normal" in2="shape" result="effect1_innerShadow_4383_52623"/>
</filter>
<linearGradient id="paint0_linear_4383_52623" x1="24.4828" y1="5" x2="24.4828" y2="45" gradientUnits="userSpaceOnUse">
<stop offset="0.0309998" stop-color="#118CF7"/>
<stop offset="1" stop-color="#A6D5FF"/>
</linearGradient>
</defs>
</svg>
