<svg width="48" height="48" viewBox="0 0 48 48" fill="none" xmlns="http://www.w3.org/2000/svg">
<g filter="url(#filter0_i_4383_53004)">
<path d="M34.1379 5H14.8276C13.5472 5 12.3193 5.52678 11.414 6.46447C10.5086 7.40215 10 8.67392 10 10V40C10 41.3261 10.5086 42.5979 11.414 43.5355C12.3193 44.4732 13.5472 45 14.8276 45H34.1379C35.4183 45 36.6462 44.4732 37.5515 43.5355C38.4569 42.5979 38.9655 41.3261 38.9655 40V10C38.9655 8.67392 38.4569 7.40215 37.5515 6.46447C36.6462 5.52678 35.4183 5 34.1379 5Z" fill="url(#paint0_linear_4383_53004)"/>
</g>
<path d="M15.7496 14.6553H22.1813C23.07 14.6553 23.7931 15.274 23.7931 16.0346C23.7931 16.7951 23.07 17.4139 22.1813 17.4139H15.7496C14.8609 17.4139 14.1379 16.7951 14.1379 16.0346C14.1379 15.274 14.8609 14.6553 15.7496 14.6553Z" fill="#D2EAFF"/>
<path d="M23.5918 27.0692H15.7185C14.8469 27.0692 14.1379 26.4504 14.1379 25.6899C14.1379 24.9293 14.8469 24.3105 15.7185 24.3105H23.5918C24.4633 24.3105 25.1724 24.9293 25.1724 25.6899C25.1724 26.4504 24.4633 27.0692 23.5918 27.0692Z" fill="#D2EAFF"/>
<path d="M30.4347 22.931H15.7721C14.871 22.931 14.1379 22.3122 14.1379 21.5517C14.1379 20.7911 14.871 20.1724 15.7721 20.1724H30.4347C31.3358 20.1724 32.0689 20.7911 32.0689 21.5517C32.0536 22.3122 31.3205 22.931 30.4347 22.931Z" fill="#D2EAFF"/>
<rect x="20" y="22" width="24" height="24" rx="12" fill="#2F8BDF"/>
<path d="M35.9683 26C35.5318 26 35.1746 26.3375 35.1746 26.75V27.5H28.8254V26.75C28.8254 26.3375 28.4683 26 28.0318 26C27.5953 26 27.2381 26.3375 27.2381 26.75V27.5H26.4445C25.5635 27.5 24.8651 28.175 24.8651 29L24.8572 39.5C24.8572 39.8978 25.0244 40.2794 25.3221 40.5607C25.6198 40.842 26.0235 41 26.4445 41H37.5556C38.4286 41 39.1429 40.325 39.1429 39.5V29C39.1429 28.175 38.4286 27.5 37.5556 27.5H36.7619V26.75C36.7619 26.3375 36.4048 26 35.9683 26ZM37.5556 39.5H26.4445V32H37.5556V39.5ZM31.2064 34.25C31.2064 33.8375 31.5635 33.5 32 33.5C32.4365 33.5 32.7937 33.8375 32.7937 34.25C32.7937 34.6625 32.4365 35 32 35C31.5635 35 31.2064 34.6625 31.2064 34.25ZM28.0318 34.25C28.0318 33.8375 28.3889 33.5 28.8254 33.5C29.2619 33.5 29.6191 33.8375 29.6191 34.25C29.6191 34.6625 29.2619 35 28.8254 35C28.3889 35 28.0318 34.6625 28.0318 34.25ZM34.381 34.25C34.381 33.8375 34.7381 33.5 35.1746 33.5C35.6111 33.5 35.9683 33.8375 35.9683 34.25C35.9683 34.6625 35.6111 35 35.1746 35C34.7381 35 34.381 34.6625 34.381 34.25ZM31.2064 37.25C31.2064 36.8375 31.5635 36.5 32 36.5C32.4365 36.5 32.7937 36.8375 32.7937 37.25C32.7937 37.6625 32.4365 38 32 38C31.5635 38 31.2064 37.6625 31.2064 37.25ZM28.0318 37.25C28.0318 36.8375 28.3889 36.5 28.8254 36.5C29.2619 36.5 29.6191 36.8375 29.6191 37.25C29.6191 37.6625 29.2619 38 28.8254 38C28.3889 38 28.0318 37.6625 28.0318 37.25ZM34.381 37.25C34.381 36.8375 34.7381 36.5 35.1746 36.5C35.6111 36.5 35.9683 36.8375 35.9683 37.25C35.9683 37.6625 35.6111 38 35.1746 38C34.7381 38 34.381 37.6625 34.381 37.25Z" fill="white"/>
<defs>
<filter id="filter0_i_4383_53004" x="10" y="5" width="28.9655" height="40" filterUnits="userSpaceOnUse" color-interpolation-filters="sRGB">
<feFlood flood-opacity="0" result="BackgroundImageFix"/>
<feBlend mode="normal" in="SourceGraphic" in2="BackgroundImageFix" result="shape"/>
<feColorMatrix in="SourceAlpha" type="matrix" values="0 0 0 0 0 0 0 0 0 0 0 0 0 0 0 0 0 0 127 0" result="hardAlpha"/>
<feOffset dy="1"/>
<feComposite in2="hardAlpha" operator="arithmetic" k2="-1" k3="1"/>
<feColorMatrix type="matrix" values="0 0 0 0 1 0 0 0 0 1 0 0 0 0 1 0 0 0 0.25 0"/>
<feBlend mode="normal" in2="shape" result="effect1_innerShadow_4383_53004"/>
</filter>
<linearGradient id="paint0_linear_4383_53004" x1="24.4828" y1="5" x2="24.4828" y2="45" gradientUnits="userSpaceOnUse">
<stop stop-color="#A6D5FF"/>
<stop offset="1" stop-color="#D2EAFF"/>
</linearGradient>
</defs>
</svg>
