<svg width="48" height="48" viewBox="0 0 48 48" fill="none" xmlns="http://www.w3.org/2000/svg">
<g filter="url(#filter0_i_4383_52641)">
<path d="M33.4713 5H14.161C12.8806 5 11.6527 5.52678 10.7473 6.46447C9.84199 7.40215 9.33337 8.67392 9.33337 10V40C9.33337 41.3261 9.84199 42.5979 10.7473 43.5355C11.6527 44.4732 12.8806 45 14.161 45H33.4713C34.7517 45 35.9796 44.4732 36.8849 43.5355C37.7903 42.5979 38.2989 41.3261 38.2989 40V10C38.2989 8.67392 37.7903 7.40215 36.8849 6.46447C35.9796 5.52678 34.7517 5 33.4713 5Z" fill="url(#paint0_linear_4383_52641)"/>
</g>
<path d="M15.083 14.6553H21.5147C22.4034 14.6553 23.1264 15.274 23.1264 16.0346C23.1264 16.7951 22.4034 17.4139 21.5147 17.4139H15.083C14.1943 17.4139 13.4713 16.7951 13.4713 16.0346C13.4713 15.274 14.1943 14.6553 15.083 14.6553Z" fill="#DFFFF2"/>
<path d="M22.9252 27.0692H15.0518C14.1803 27.0692 13.4713 26.4504 13.4713 25.6899C13.4713 24.9293 14.1803 24.3105 15.0518 24.3105H22.9252C23.7967 24.3105 24.5057 24.9293 24.5057 25.6899C24.5057 26.4504 23.7967 27.0692 22.9252 27.0692Z" fill="#DFFFF2"/>
<path d="M29.768 22.931H15.1055C14.2044 22.931 13.4713 22.3122 13.4713 21.5517C13.4713 20.7911 14.2044 20.1724 15.1055 20.1724H29.768C30.6692 20.1724 31.4023 20.7911 31.4023 21.5517C31.387 22.3122 30.6539 22.931 29.768 22.931Z" fill="#DFFFF2"/>
<rect x="19.3334" y="21" width="24" height="24" rx="12" fill="#00A773"/>
<path fill-rule="evenodd" clip-rule="evenodd" d="M35.4054 24.488C35.7179 24.1755 36.1418 24 36.5837 24C37.0256 24 37.4495 24.1755 37.762 24.488L39.0837 25.8096C39.3962 26.1222 39.5717 26.546 39.5717 26.988C39.5717 27.4299 39.3962 27.8538 39.0837 28.1663L37.762 29.488L34.0837 25.8096L35.4054 24.488ZM32.9054 26.988L28.7387 31.1546C28.4261 31.4671 28.2505 31.891 28.2504 32.333V33.6546C28.2504 34.0967 28.426 34.5206 28.7385 34.8332C29.0511 35.1457 29.475 35.3213 29.917 35.3213H31.2387C31.6807 35.3212 32.1045 35.1456 32.417 34.833L36.5837 30.6663L32.9054 26.988Z" fill="white"/>
<path d="M25.7504 34.4883H24.917C24.475 34.4883 24.0511 34.6639 23.7385 34.9764C23.426 35.289 23.2504 35.7129 23.2504 36.1549C23.2504 36.597 23.426 37.0209 23.7385 37.3335C24.0511 37.646 24.475 37.8216 24.917 37.8216H36.5837C37.0257 37.8216 37.4496 37.9972 37.7622 38.3098C38.0748 38.6223 38.2504 39.0463 38.2504 39.4883C38.2504 39.9303 38.0748 40.3542 37.7622 40.6668C37.4496 40.9794 37.0257 41.1549 36.5837 41.1549H33.2504" stroke="white" stroke-width="1.5" stroke-linecap="round" stroke-linejoin="round"/>
<defs>
<filter id="filter0_i_4383_52641" x="9.33337" y="5" width="28.9655" height="40" filterUnits="userSpaceOnUse" color-interpolation-filters="sRGB">
<feFlood flood-opacity="0" result="BackgroundImageFix"/>
<feBlend mode="normal" in="SourceGraphic" in2="BackgroundImageFix" result="shape"/>
<feColorMatrix in="SourceAlpha" type="matrix" values="0 0 0 0 0 0 0 0 0 0 0 0 0 0 0 0 0 0 127 0" result="hardAlpha"/>
<feOffset dy="1"/>
<feComposite in2="hardAlpha" operator="arithmetic" k2="-1" k3="1"/>
<feColorMatrix type="matrix" values="0 0 0 0 1 0 0 0 0 1 0 0 0 0 1 0 0 0 0.25 0"/>
<feBlend mode="normal" in2="shape" result="effect1_innerShadow_4383_52641"/>
</filter>
<linearGradient id="paint0_linear_4383_52641" x1="23.8161" y1="5" x2="23.8161" y2="45" gradientUnits="userSpaceOnUse">
<stop stop-color="#03AB67"/>
<stop offset="1" stop-color="#BCFFE4"/>
</linearGradient>
</defs>
</svg>
