<svg width="48" height="48" viewBox="0 0 48 48" fill="none" xmlns="http://www.w3.org/2000/svg">
<g filter="url(#filter0_i_4383_52609)">
<path d="M33.8046 5H14.4942C13.2139 5 11.9859 5.52678 11.0806 6.46447C10.1752 7.40215 9.66663 8.67392 9.66663 10V40C9.66663 41.3261 10.1752 42.5979 11.0806 43.5355C11.9859 44.4732 13.2139 45 14.4942 45H33.8046C35.0849 45 36.3128 44.4732 37.2182 43.5355C38.1235 42.5979 38.6321 41.3261 38.6321 40V10C38.6321 8.67392 38.1235 7.40215 37.2182 6.46447C36.3128 5.52678 35.0849 5 33.8046 5Z" fill="url(#paint0_linear_4383_52609)"/>
</g>
<path d="M15.4162 14.6553H21.848C22.7367 14.6553 23.4597 15.274 23.4597 16.0346C23.4597 16.7951 22.7367 17.4139 21.848 17.4139H15.4162C14.5275 17.4139 13.8045 16.7951 13.8045 16.0346C13.8045 15.274 14.5275 14.6553 15.4162 14.6553Z" fill="#FFE5EB"/>
<path d="M23.2584 27.0692H15.3851C14.5136 27.0692 13.8045 26.4504 13.8045 25.6899C13.8045 24.9293 14.5136 24.3105 15.3851 24.3105H23.2584C24.13 24.3105 24.839 24.9293 24.839 25.6899C24.839 26.4504 24.13 27.0692 23.2584 27.0692Z" fill="#FFE5EB"/>
<path d="M30.1013 22.931H15.4388C14.5377 22.931 13.8045 22.3122 13.8045 21.5517C13.8045 20.7911 14.5377 20.1724 15.4388 20.1724H30.1013C31.0024 20.1724 31.7356 20.7911 31.7356 21.5517C31.7203 22.3122 30.9872 22.931 30.1013 22.931Z" fill="#FFE5EB"/>
<rect x="19.6666" y="24" width="24" height="24" rx="12" fill="#F02F51"/>
<path d="M31.5431 34.4211L33.8486 36.7495V36.6316C33.8486 36.0453 33.6187 35.4831 33.2095 35.0685C32.8004 34.6539 32.2454 34.4211 31.6667 34.4211H31.5431ZM28.4158 35.0105L29.5431 36.1526C29.5067 36.3074 29.4849 36.4621 29.4849 36.6316C29.4849 37.2178 29.7148 37.7801 30.124 38.1947C30.5331 38.6092 31.0881 38.8421 31.6667 38.8421C31.8267 38.8421 31.9867 38.82 32.1395 38.7832L33.2667 39.9253C32.7795 40.1684 32.2413 40.3158 31.6667 40.3158C30.7023 40.3158 29.7774 39.9276 29.0955 39.2367C28.4135 38.5458 28.0304 37.6087 28.0304 36.6316C28.0304 36.0495 28.1758 35.5042 28.4158 35.0105ZM24.394 30.9358L26.0522 32.6158L26.3795 32.9474C25.1795 33.9053 24.234 35.1579 23.6667 36.6316C24.9249 39.8663 28.0304 42.1579 31.6667 42.1579C32.794 42.1579 33.8704 41.9368 34.8522 41.5389L35.1649 41.8484L37.2886 44L38.2122 43.0642L25.3177 30M31.6667 32.9474C32.6312 32.9474 33.5561 33.3355 34.238 34.0264C34.92 34.7174 35.3031 35.6545 35.3031 36.6316C35.3031 37.1032 35.2086 37.56 35.0413 37.9726L37.1722 40.1316C38.2631 39.2105 39.1358 38.0021 39.6667 36.6316C38.4086 33.3968 35.3031 31.1053 31.6667 31.1053C30.6486 31.1053 29.674 31.2895 28.7577 31.6211L30.3358 33.2053C30.7504 33.0432 31.194 32.9474 31.6667 32.9474Z" fill="white"/>
<defs>
<filter id="filter0_i_4383_52609" x="9.66663" y="5" width="28.9655" height="40" filterUnits="userSpaceOnUse" color-interpolation-filters="sRGB">
<feFlood flood-opacity="0" result="BackgroundImageFix"/>
<feBlend mode="normal" in="SourceGraphic" in2="BackgroundImageFix" result="shape"/>
<feColorMatrix in="SourceAlpha" type="matrix" values="0 0 0 0 0 0 0 0 0 0 0 0 0 0 0 0 0 0 127 0" result="hardAlpha"/>
<feOffset dy="1"/>
<feComposite in2="hardAlpha" operator="arithmetic" k2="-1" k3="1"/>
<feColorMatrix type="matrix" values="0 0 0 0 1 0 0 0 0 1 0 0 0 0 1 0 0 0 0.25 0"/>
<feBlend mode="normal" in2="shape" result="effect1_innerShadow_4383_52609"/>
</filter>
<linearGradient id="paint0_linear_4383_52609" x1="24.1494" y1="5" x2="24.1494" y2="45" gradientUnits="userSpaceOnUse">
<stop stop-color="#FF0036"/>
<stop offset="1" stop-color="#FFE5EB"/>
</linearGradient>
</defs>
</svg>
