<svg width="20" height="26" viewBox="0 0 20 26" fill="none" xmlns="http://www.w3.org/2000/svg">
<path d="M19.368 6.89141L13.4836 1.00703C13.3195 0.842969 13.098 0.75 12.8656 0.75H1.25C0.766016 0.75 0.375 1.14102 0.375 1.625V24.375C0.375 24.859 0.766016 25.25 1.25 25.25H18.75C19.234 25.25 19.625 24.859 19.625 24.375V7.51211C19.625 7.27969 19.532 7.05547 19.368 6.89141ZM17.607 7.91406H12.4609V2.76797L17.607 7.91406ZM17.6562 23.2812H2.34375V2.71875H10.6016V8.625C10.6016 8.92958 10.7226 9.22169 10.9379 9.43707C11.1533 9.65244 11.4454 9.77344 11.75 9.77344H17.6562V23.2812ZM10.4402 11.9062H9.55977C9.40938 11.9062 9.27812 12.0074 9.24258 12.1551L7.88359 17.5938L6.62305 12.1605C6.5875 12.0129 6.45625 11.9062 6.30312 11.9062H5.33516C5.28486 11.9063 5.23525 11.9179 5.19015 11.9402C5.14505 11.9625 5.10567 11.9948 5.07503 12.0347C5.04438 12.0746 5.02331 12.121 5.01341 12.1703C5.00352 12.2196 5.00508 12.2705 5.01797 12.3191L7.04688 19.866C7.08516 20.0082 7.21641 20.1094 7.36406 20.1094H8.23906C8.38672 20.1094 8.51797 20.0109 8.55625 19.866L10 14.4793L11.4437 19.866C11.482 20.0082 11.6133 20.1094 11.7609 20.1094H12.6305C12.7781 20.1094 12.9094 20.0109 12.9477 19.866L14.982 12.3191C14.9948 12.2705 14.9963 12.2196 14.9863 12.1704C14.9764 12.1211 14.9553 12.0748 14.9247 12.0349C14.8941 11.995 14.8547 11.9627 14.8097 11.9404C14.7647 11.9181 14.7151 11.9064 14.6648 11.9062H13.6914C13.5383 11.9062 13.407 12.0129 13.3715 12.1605L12.1191 17.6047L10.7574 12.1551C10.7219 12.0074 10.5906 11.9062 10.4402 11.9062Z" fill="#0070C5"/>
</svg>
