<svg width="13" height="16" viewBox="0 0 13 16" fill="none" xmlns="http://www.w3.org/2000/svg">
<path d="M6.48721 16L0.59488 10.138C0.266586 9.81142 0.2659 9.2803 0.593349 8.95286C0.919289 8.62692 1.44742 8.62587 1.77464 8.95052L6.48721 13.626L11.1634 8.94974C11.4924 8.62077 12.0261 8.62189 12.3537 8.95225C12.6794 9.28068 12.6782 9.81059 12.3511 10.1376L6.48721 16ZM6.48721 7.64665L0.59488 1.78467C0.266586 1.45807 0.2659 0.926958 0.59335 0.599508C0.919289 0.273569 1.44742 0.272525 1.77464 0.597174L6.48721 5.27263L11.1634 0.596395C11.4924 0.267423 12.0261 0.268549 12.3537 0.598907C12.6794 0.927329 12.6782 1.45724 12.3511 1.78424L6.48721 7.64665Z" fill="#848E94"/>
</svg>
