<svg width="13" height="16" viewBox="0 0 13 16" fill="none" xmlns="http://www.w3.org/2000/svg">
<path d="M6.51279 0L12.4051 5.86198C12.7334 6.18858 12.7341 6.7197 12.4067 7.04714C12.0807 7.37308 11.5526 7.37413 11.2254 7.04948L6.51279 2.37402L1.83655 7.05026C1.50758 7.37923 0.973865 7.37811 0.646283 7.04775C0.320621 6.71932 0.321773 6.18941 0.648861 5.86241L6.51279 0ZM6.51279 8.35335L12.4051 14.2153C12.7334 14.5419 12.7341 15.073 12.4067 15.4005C12.0807 15.7264 11.5526 15.7275 11.2254 15.4028L6.51279 10.7274L1.83655 15.4036C1.50758 15.7326 0.973866 15.7315 0.646283 15.4011C0.320621 15.0727 0.321773 14.5428 0.648861 14.2158L6.51279 8.35335Z" fill="#848E94"/>
</svg>
