<svg width="38" height="38" viewBox="0 0 38 38" fill="none" xmlns="http://www.w3.org/2000/svg">
<rect width="38" height="38" rx="8" fill="#F3F4F6"/>
<path opacity="0.4" d="M10.75 13.5C10.75 11.475 12.3916 9.83337 14.4167 9.83337H20.8333L27.25 16.25V24.5C27.25 26.5251 25.6084 28.1667 23.5833 28.1667H14.4167C12.3916 28.1667 10.75 26.5251 10.75 24.5V13.5Z" fill="#EE0033"/>
<path d="M27.2502 16.25L20.8335 9.83337V12.5834C20.8335 14.6084 22.4751 16.25 24.5002 16.25H27.2502Z" fill="#EE0033"/>
<path fill-rule="evenodd" clip-rule="evenodd" d="M14.646 18.0834C14.646 17.7037 14.9538 17.3959 15.3335 17.3959H19.0002C19.3799 17.3959 19.6877 17.7037 19.6877 18.0834C19.6877 18.4631 19.3799 18.7709 19.0002 18.7709H15.3335C14.9538 18.7709 14.646 18.4631 14.646 18.0834Z" fill="#EE0033"/>
<path fill-rule="evenodd" clip-rule="evenodd" d="M14.646 22.6666C14.646 22.2869 14.9538 21.9791 15.3335 21.9791H22.6668C23.0465 21.9791 23.3543 22.2869 23.3543 22.6666C23.3543 23.0463 23.0465 23.3541 22.6668 23.3541H15.3335C14.9538 23.3541 14.646 23.0463 14.646 22.6666Z" fill="#EE0033"/>
<path d="M20.8798 20.9921L23.1682 20.6652C23.4983 20.618 23.8043 20.4651 24.04 20.2293L28.4589 15.8104C28.4589 15.8104 27.3691 15.8104 26.2794 14.7206C25.1896 13.6309 25.1896 12.5411 25.1896 12.5411L20.7708 16.96C20.535 17.1958 20.382 17.5017 20.3349 17.8318L20.008 20.1203C19.9353 20.6288 20.3712 21.0647 20.8798 20.9921Z" fill="#EE0033"/>
<path opacity="0.4" d="M29.5485 12.5411L28.4587 11.4514C27.8569 10.8495 26.8811 10.8495 26.2792 11.4514L25.1895 12.5412C25.1895 12.5412 25.1895 13.6309 26.2792 14.7207C27.369 15.8104 28.4587 15.8104 28.4587 15.8104L29.5485 14.7207C30.1503 14.1188 30.1503 13.143 29.5485 12.5411Z" fill="#EE0033"/>
</svg>
