<svg width="24" height="25" viewBox="0 0 24 25" fill="none" xmlns="http://www.w3.org/2000/svg">
<rect y="0.5" width="24" height="24" rx="12" fill="#00884F"/>
<path fill-rule="evenodd" clip-rule="evenodd" d="M19.5 12.5C19.5 16.6423 16.1423 20 12 20C7.85775 20 4.5 16.6423 4.5 12.5C4.5 8.35775 7.85775 5 12 5C16.1423 5 19.5 8.35775 19.5 12.5ZM15.0225 10.2275C15.1278 10.333 15.187 10.4759 15.187 10.625C15.187 10.7741 15.1278 10.917 15.0225 11.0225L11.2725 14.7725C11.167 14.8778 11.0241 14.937 10.875 14.937C10.7259 14.937 10.583 14.8778 10.4775 14.7725L8.9775 13.2725C8.92223 13.221 8.87791 13.1589 8.84716 13.0899C8.81642 13.0209 8.79989 12.9464 8.79856 12.8709C8.79722 12.7954 8.81112 12.7203 8.83941 12.6503C8.8677 12.5803 8.90981 12.5166 8.96322 12.4632C9.01664 12.4098 9.08026 12.3677 9.1503 12.3394C9.22034 12.3111 9.29536 12.2972 9.37089 12.2986C9.44642 12.2999 9.5209 12.3164 9.5899 12.3472C9.6589 12.3779 9.721 12.4222 9.7725 12.4775L10.875 13.58L12.5512 11.9037L14.2275 10.2275C14.333 10.1222 14.4759 10.063 14.625 10.063C14.7741 10.063 14.917 10.1222 15.0225 10.2275Z" fill="white"/>
</svg>
