<svg width="44" height="45" viewBox="0 0 44 45" fill="none" xmlns="http://www.w3.org/2000/svg">
<rect y="0.5" width="44" height="44" rx="22" fill="#EE0033"/>
<path d="M22 20.5C24.2091 20.5 26 18.7091 26 16.5C26 14.2909 24.2091 12.5 22 12.5C19.7909 12.5 18 14.2909 18 16.5C18 18.7091 19.7909 20.5 22 20.5Z" stroke="white" stroke-width="2" stroke-linecap="round" stroke-linejoin="round"/>
<path d="M31 32.5C31 27.5294 26.9706 23.5 22 23.5C17.0294 23.5 13 27.5294 13 32.5" stroke="url(#paint0_linear_418_93343)" stroke-width="2" stroke-linecap="round" stroke-linejoin="round"/>
<path d="M19.5 30H24.5" stroke="url(#paint1_linear_418_93343)" stroke-width="2" stroke-linecap="round" stroke-linejoin="round"/>
<path d="M22 27.5V32.5" stroke="white" stroke-width="2" stroke-linecap="round" stroke-linejoin="round"/>
<defs>
<linearGradient id="paint0_linear_418_93343" x1="22" y1="23.5" x2="22" y2="32.5" gradientUnits="userSpaceOnUse">
<stop offset="0.3" stop-color="white"/>
<stop offset="1" stop-color="#FBBFCC"/>
</linearGradient>
<linearGradient id="paint1_linear_418_93343" x1="22" y1="30" x2="22" y2="31" gradientUnits="userSpaceOnUse">
<stop offset="0.3" stop-color="white"/>
<stop offset="1" stop-color="#FBBFCC"/>
</linearGradient>
</defs>
</svg>
