<svg width="24" height="24" viewBox="0 0 24 24" fill="none" xmlns="http://www.w3.org/2000/svg">
<path fill-rule="evenodd" clip-rule="evenodd" d="M3.07403 10.1787C3 10.4434 3 10.7308 3 11.3057V18.5471C3 19.6682 3 20.2288 3.21799 20.657C3.40973 21.0337 3.71569 21.3399 4.09202 21.5318C4.51984 21.75 5.0799 21.75 6.2 21.75H9H15H17.8C18.9201 21.75 19.4802 21.75 19.908 21.5318C20.2843 21.3399 20.5903 21.0337 20.782 20.657C21 20.2288 21 19.6682 21 18.5471V11.3057C21 10.7308 21 10.4434 20.926 10.1787C20.8604 9.94418 20.7526 9.72364 20.608 9.52788C20.4447 9.30689 20.218 9.13042 19.7646 8.7775L19.7646 8.77748L12.9823 3.4976C12.631 3.2241 12.4553 3.08735 12.2613 3.03479C12.0902 2.9884 11.9098 2.9884 11.7387 3.03479C11.5447 3.08735 11.369 3.2241 11.0177 3.4976L4.23539 8.77747C3.78202 9.13041 3.55534 9.30688 3.39203 9.52788C3.24737 9.72364 3.1396 9.94418 3.07403 10.1787ZM9 14.3431V21.7498H15V14.3431C15 13.7826 15 13.5023 14.891 13.2882C14.7951 13.0998 14.6422 12.9467 14.454 12.8508C14.2401 12.7417 13.9601 12.7417 13.4 12.7417H10.6C10.0399 12.7417 9.75992 12.7417 9.54601 12.8508C9.35785 12.9467 9.20487 13.0998 9.10899 13.2882C9 13.5023 9 13.7826 9 14.3431Z" fill="#7165E3"/>
</svg>
