<svg width="25" height="24" viewBox="0 0 25 24" fill="none" xmlns="http://www.w3.org/2000/svg">
<g clip-path="url(#clip0_12324_79879)">
<path fill-rule="evenodd" clip-rule="evenodd" d="M9.74148 2.83676C9.74238 3.11304 9.51937 3.33774 9.24337 3.33864L6.35864 3.34805C4.9143 3.35277 3.74451 4.52348 3.73949 5.96929L3.73208 8.10163L3.98331 7.8504C4.17858 7.65513 4.49516 7.65513 4.69042 7.8504C4.88568 8.04566 4.88568 8.36224 4.69042 8.5575L3.53548 9.71245C3.34021 9.90771 3.02363 9.90771 2.82837 9.71245L1.67342 8.5575C1.47816 8.36224 1.47816 8.04566 1.67342 7.8504C1.86869 7.65513 2.18527 7.65513 2.38053 7.8504L2.73223 8.20209L2.74 5.96581C2.74693 3.97008 4.36167 2.35406 6.35538 2.34755L9.24011 2.33814C9.51611 2.33724 9.74058 2.56048 9.74148 2.83676ZM9.70846 8.4614C10.3235 6.17918 12.4064 4.50001 14.8799 4.50001C17.8374 4.50001 20.2358 6.90009 20.2358 9.8618C20.2358 11.8662 19.1371 13.6144 17.5087 14.5345C17.443 11.0784 14.6235 8.29615 11.154 8.29615C10.6567 8.29615 10.1728 8.3533 9.70846 8.4614ZM8.60776 8.8272C9.10169 5.8059 11.7211 3.50001 14.8799 3.50001C18.3907 3.50001 21.2358 6.34875 21.2358 9.8618C21.2358 12.4695 19.6684 14.71 17.4263 15.6923C16.9327 18.7136 14.3128 21.0197 11.154 21.0197C7.64328 21.0197 4.79813 18.171 4.79813 14.6579C4.79813 12.051 6.3649 9.80985 8.60776 8.8272ZM5.79813 14.6579C5.79813 11.6962 8.19652 9.29615 11.154 9.29615C14.1115 9.29615 16.5099 11.6962 16.5099 14.6579C16.5099 17.6197 14.1115 20.0197 11.154 20.0197C8.19652 20.0197 5.79813 17.6197 5.79813 14.6579ZM15.8941 21.8849C15.8932 21.6087 16.1162 21.384 16.3922 21.3831L19.2769 21.3736C20.7213 21.3689 21.8911 20.1982 21.8961 18.7524L21.9035 16.6201L21.6523 16.8713C21.457 17.0666 21.1404 17.0666 20.9452 16.8713C20.7499 16.676 20.7499 16.3595 20.9452 16.1642L22.1001 15.0092C22.2954 14.814 22.6119 14.814 22.8072 15.0092L23.9621 16.1642C24.1574 16.3595 24.1574 16.676 23.9621 16.8713C23.7669 17.0666 23.4503 17.0666 23.255 16.8713L22.9033 16.5196L22.8956 18.7559C22.8886 20.7516 21.2739 22.3676 19.2802 22.3741L16.3955 22.3836C16.1195 22.3845 15.895 22.1612 15.8941 21.8849Z" fill="white"/>
</g>
<defs>
<clipPath id="clip0_12324_79879">
<rect width="24" height="24" fill="white" transform="translate(0.5)"/>
</clipPath>
</defs>
</svg>
