<svg width="24" height="24" viewBox="0 0 24 24" fill="none" xmlns="http://www.w3.org/2000/svg">
<path fill-rule="evenodd" clip-rule="evenodd" d="M16.5 4C16.5 3.17157 17.1716 2.5 18 2.5H20C20.8284 2.5 21.5 3.17157 21.5 4V20.5H23C23.2761 20.5 23.5 20.7239 23.5 21C23.5 21.2761 23.2761 21.5 23 21.5H21.5H21H17H16.5H14.5H14H10H9.5H7.5H7H3H2.5H1C0.723858 21.5 0.5 21.2761 0.5 21C0.5 20.7239 0.723858 20.5 1 20.5H2.5V15C2.5 14.1716 3.17157 13.5 4 13.5H6C6.82843 13.5 7.5 14.1716 7.5 15V20.5H9.5V9C9.5 8.17157 10.1716 7.5 11 7.5H13C13.8284 7.5 14.5 8.17157 14.5 9V20.5H16.5V4ZM17.5 20.5H20.5V4C20.5 3.72386 20.2761 3.5 20 3.5H18C17.7239 3.5 17.5 3.72386 17.5 4V20.5ZM13.5 20.5V9C13.5 8.72386 13.2761 8.5 13 8.5H11C10.7239 8.5 10.5 8.72386 10.5 9V20.5H13.5ZM6.5 20.5V15C6.5 14.7239 6.27614 14.5 6 14.5H4C3.72386 14.5 3.5 14.7239 3.5 15V20.5H6.5Z" fill="#EAECEF"/>
</svg>
