<svg width="24" height="25" viewBox="0 0 24 25" fill="none" xmlns="http://www.w3.org/2000/svg">
<path d="M9 21.8984V14.4918C9 13.9312 9 13.6509 9.10899 13.4368C9.20487 13.2485 9.35785 13.0954 9.54601 12.9994C9.75992 12.8903 10.0399 12.8903 10.6 12.8903H13.4C13.9601 12.8903 14.2401 12.8903 14.454 12.9994C14.6422 13.0954 14.7951 13.2485 14.891 13.4368C15 13.6509 15 13.9312 15 14.4918V21.8984M11.0177 3.64604L4.23539 8.92591C3.78202 9.27885 3.55534 9.45532 3.39203 9.67632C3.24737 9.87208 3.1396 10.0926 3.07403 10.3271C3 10.5918 3 10.8792 3 11.4541V18.6956C3 19.8167 3 20.3772 3.21799 20.8054C3.40973 21.1821 3.71569 21.4883 4.09202 21.6803C4.51984 21.8984 5.07989 21.8984 6.2 21.8984H17.8C18.9201 21.8984 19.4802 21.8984 19.908 21.6803C20.2843 21.4883 20.5903 21.1821 20.782 20.8054C21 20.3772 21 19.8167 21 18.6956V11.4541C21 10.8792 21 10.5918 20.926 10.3271C20.8604 10.0926 20.7526 9.87208 20.608 9.67632C20.4447 9.45532 20.218 9.27885 19.7646 8.92591L12.9823 3.64604C12.631 3.37254 12.4553 3.23579 12.2613 3.18322C12.0902 3.13684 11.9098 3.13684 11.7387 3.18322C11.5447 3.23579 11.369 3.37254 11.0177 3.64604Z" stroke="#EAECEF" stroke-linecap="round" stroke-linejoin="round"/>
</svg>
