<svg width="24" height="24" viewBox="0 0 24 24" fill="none" xmlns="http://www.w3.org/2000/svg">
<path d="M11.315 4.2791C11.5351 3.83743 11.6452 3.6166 11.7945 3.54604C11.9245 3.48465 12.0755 3.48465 12.2055 3.54604C12.3548 3.6166 12.4649 3.83743 12.685 4.2791L14.7729 8.46929C14.8378 8.59968 14.8703 8.66488 14.9178 8.7155C14.9598 8.76031 15.0102 8.79663 15.0662 8.82242C15.1295 8.85156 15.2021 8.86207 15.3473 8.8831L20.0177 9.55934C20.5095 9.63055 20.7554 9.66616 20.8692 9.78515C20.9682 9.88868 21.0147 10.0309 20.9959 10.1723C20.9742 10.3348 20.7962 10.5066 20.4401 10.8502L17.0619 14.1097C16.9566 14.2113 16.904 14.2621 16.87 14.3225C16.8399 14.3761 16.8206 14.4349 16.8132 14.4957C16.8048 14.5644 16.8172 14.6361 16.842 14.7797L17.6391 19.3836C17.7232 19.8692 17.7653 20.112 17.6863 20.2561C17.6175 20.3814 17.4953 20.4693 17.3538 20.4953C17.191 20.5252 16.9709 20.4106 16.5307 20.1812L12.3555 18.0061C12.2255 17.9384 12.1604 17.9045 12.0919 17.8912C12.0312 17.8794 11.9688 17.8794 11.9081 17.8912C11.8396 17.9045 11.7746 17.9384 11.6445 18.0061L7.46926 20.1812C7.02908 20.4106 6.80899 20.5252 6.64625 20.4953C6.50465 20.4693 6.38248 20.3814 6.31374 20.2561C6.23474 20.112 6.27678 19.8692 6.36085 19.3836L7.15795 14.7797C7.1828 14.6361 7.19523 14.5644 7.18682 14.4957C7.17938 14.4349 7.16008 14.3761 7.12999 14.3225C7.09602 14.2621 7.04336 14.2113 6.93805 14.1097L3.55985 10.8502C3.2038 10.5066 3.02578 10.3348 3.00411 10.1723C2.98526 10.0309 3.03183 9.88868 3.13084 9.78515C3.24464 9.66616 3.49054 9.63055 3.98235 9.55934L8.65266 8.8831C8.7979 8.86207 8.87052 8.85156 8.93377 8.82242C8.98976 8.79663 9.04018 8.76031 9.08221 8.7155C9.12969 8.66488 9.16217 8.59968 9.22714 8.46929L11.315 4.2791Z" fill="#5E5CC2" stroke="#5E5CC2" stroke-linecap="round" stroke-linejoin="round"/>
</svg>
