<svg width="16" height="16" viewBox="0 0 16 16" fill="none" xmlns="http://www.w3.org/2000/svg">
<path fill-rule="evenodd" clip-rule="evenodd" d="M14.6673 7.99967C14.6673 11.6817 11.6827 14.6663 8.00065 14.6663C4.31865 14.6663 1.33398 11.6817 1.33398 7.99967C1.33398 4.31767 4.31865 1.33301 8.00065 1.33301C11.6827 1.33301 14.6673 4.31767 14.6673 7.99967ZM10.6873 5.97967C10.781 6.07342 10.8335 6.20051 10.8335 6.33301C10.8335 6.46551 10.781 6.59259 10.6873 6.68634L7.35398 10.0197C7.26023 10.1133 7.13315 10.1659 7.00065 10.1659C6.86815 10.1659 6.74107 10.1133 6.64732 10.0197L5.31398 8.68634C5.26486 8.64057 5.22546 8.58537 5.19813 8.52403C5.1708 8.4627 5.15611 8.39649 5.15492 8.32936C5.15374 8.26222 5.16609 8.19553 5.19124 8.13328C5.21638 8.07102 5.25381 8.01446 5.30129 7.96698C5.34877 7.9195 5.40533 7.88207 5.46759 7.85693C5.52984 7.83178 5.59653 7.81943 5.66367 7.82061C5.7308 7.8218 5.79701 7.83649 5.85834 7.86382C5.91968 7.89115 5.97488 7.93055 6.02065 7.97967L7.00065 8.95967L8.49065 7.46967L9.98065 5.97967C10.0744 5.88604 10.2015 5.83345 10.334 5.83345C10.4665 5.83345 10.5936 5.88604 10.6873 5.97967Z" fill="#00884F"/>
</svg>
