<svg width="40" height="40" viewBox="0 0 40 40" fill="none" xmlns="http://www.w3.org/2000/svg">
<rect width="40" height="40" rx="8" fill="#F3F4F6"/>
<g clip-path="url(#clip0_7400_70376)">
<path d="M23.9548 15.6937C28.3371 15.6268 31.9138 19.0759 31.9987 23.4578C32.0111 24.1011 31.9468 24.7273 31.8144 25.328C31.59 26.345 31.4567 27.38 31.4567 28.4215V30.4347C31.4567 30.7431 31.2066 30.9932 30.8982 30.9932H28.885C27.8435 30.9932 26.8085 31.1265 25.7915 31.3509C25.1909 31.4833 24.5647 31.5476 23.9213 31.5352C19.5395 31.4504 16.0904 27.8737 16.1572 23.4916C16.2224 19.2142 19.6776 15.7591 23.9548 15.6937Z" fill="url(#paint0_linear_7400_70376)"/>
<path d="M23.9548 15.6937C28.3371 15.6268 31.9138 19.0759 31.9987 23.4578C32.0111 24.1011 31.9468 24.7273 31.8144 25.328C31.59 26.345 31.4567 27.38 31.4567 28.4215V30.4347C31.4567 30.7431 31.2066 30.9932 30.8982 30.9932H28.885C27.8435 30.9932 26.8085 31.1265 25.7915 31.3509C25.1909 31.4833 24.5647 31.5476 23.9213 31.5352C19.5395 31.4504 16.0904 27.8737 16.1572 23.4916C16.2224 19.2142 19.6776 15.7591 23.9548 15.6937Z" fill="#E6E6E6"/>
<path d="M17.8015 8.46442C12.4627 8.38286 8.10525 12.5848 8.00184 17.9232C7.9867 18.7069 8.06503 19.4699 8.22647 20.2016C8.49975 21.4406 8.66222 22.7015 8.66222 23.9703V26.4229C8.66222 26.7987 8.96681 27.1033 9.34261 27.1033H11.7952C13.064 27.1033 14.3249 27.2658 15.5639 27.539C16.2957 27.7004 17.0586 27.7788 17.8423 27.7636C23.1806 27.6603 27.3825 23.303 27.3011 17.9643C27.2216 12.7533 23.0124 8.54397 17.8015 8.46442Z" fill="#F192A8"/>
<path d="M13.1087 20.1151C13.9343 20.1151 14.6035 19.4459 14.6035 18.6203C14.6035 17.7947 13.9343 17.1254 13.1087 17.1254C12.2831 17.1254 11.6138 17.7947 11.6138 18.6203C11.6138 19.4459 12.2831 20.1151 13.1087 20.1151Z" fill="#EE0033"/>
<path d="M17.3367 20.1151C18.1623 20.1151 18.8316 19.4459 18.8316 18.6203C18.8316 17.7947 18.1623 17.1254 17.3367 17.1254C16.5111 17.1254 15.8418 17.7947 15.8418 18.6203C15.8418 19.4459 16.5111 20.1151 17.3367 20.1151Z" fill="#EE0033"/>
<path d="M21.5642 20.1151C22.3898 20.1151 23.0591 19.4459 23.0591 18.6203C23.0591 17.7947 22.3898 17.1254 21.5642 17.1254C20.7386 17.1254 20.0693 17.7947 20.0693 18.6203C20.0693 19.4459 20.7386 20.1151 21.5642 20.1151Z" fill="#EE0033"/>
</g>
<defs>
<linearGradient id="paint0_linear_7400_70376" x1="22.4791" y1="22.0161" x2="34.1099" y2="33.6469" gradientUnits="userSpaceOnUse">
<stop stop-color="#A7F3CE"/>
<stop offset="1" stop-color="#61DB99"/>
</linearGradient>
<clipPath id="clip0_7400_70376">
<rect width="24" height="24" fill="white" transform="translate(8 8)"/>
</clipPath>
</defs>
</svg>
