<svg width="24" height="24" viewBox="0 0 24 24" fill="none" xmlns="http://www.w3.org/2000/svg">
<rect x="0.5" y="0.5" width="23" height="23" rx="5.5" fill="white"/>
<rect x="0.5" y="0.5" width="23" height="23" rx="5.5" stroke="#D1D5DB"/>
<path d="M12.0753 10.1293H10.5241C10.4645 9.79782 10.3535 9.50615 10.1911 9.25426C10.0286 9.00237 9.82978 8.78859 9.59446 8.61293C9.35914 8.43726 9.09564 8.30469 8.80398 8.2152C8.51563 8.12571 8.20904 8.08097 7.88423 8.08097C7.29759 8.08097 6.77225 8.22846 6.30824 8.52344C5.84754 8.81842 5.48295 9.25095 5.21449 9.82102C4.94934 10.3911 4.81676 11.0871 4.81676 11.9091C4.81676 12.7377 4.94934 13.437 5.21449 14.0071C5.48295 14.5772 5.8492 15.008 6.31321 15.2997C6.77723 15.5914 7.29924 15.7372 7.87926 15.7372C8.20076 15.7372 8.50568 15.6941 8.79403 15.608C9.0857 15.5185 9.3492 15.3875 9.58452 15.2152C9.81984 15.0429 10.0187 14.8324 10.1811 14.5838C10.3468 14.3319 10.4612 14.0436 10.5241 13.7188L12.0753 13.7237C11.9924 14.2242 11.8317 14.6849 11.593 15.1058C11.3577 15.5234 11.0545 15.8847 10.6832 16.1896C10.3153 16.4912 9.89441 16.7249 9.42045 16.8906C8.9465 17.0563 8.42945 17.1392 7.86932 17.1392C6.98769 17.1392 6.20218 16.9304 5.51278 16.5128C4.82339 16.0919 4.27983 15.4903 3.8821 14.7081C3.48769 13.9259 3.29048 12.9929 3.29048 11.9091C3.29048 10.822 3.48935 9.88897 3.88707 9.11008C4.2848 8.32789 4.82836 7.72798 5.51776 7.31037C6.20715 6.88944 6.991 6.67898 7.86932 6.67898C8.40956 6.67898 8.91335 6.75687 9.38068 6.91264C9.85133 7.0651 10.2739 7.29048 10.6484 7.58878C11.023 7.88376 11.3329 8.24503 11.5781 8.67258C11.8234 9.09683 11.9891 9.58239 12.0753 10.1293ZM17.0108 17.1541C16.2717 17.1541 15.6354 16.9867 15.1017 16.652C14.5714 16.3139 14.1638 15.8482 13.8787 15.255C13.5937 14.6617 13.4512 13.9822 13.4512 13.2166C13.4512 12.4411 13.597 11.7566 13.8887 11.1634C14.1803 10.5668 14.5913 10.1011 15.1216 9.76633C15.6519 9.43158 16.2767 9.2642 16.9959 9.2642C17.5759 9.2642 18.093 9.37192 18.5471 9.58736C19.0011 9.79948 19.3674 10.0978 19.6458 10.4822C19.9275 10.8667 20.0949 11.3158 20.1479 11.8295H18.7012C18.6216 11.4716 18.4393 11.1634 18.1543 10.9048C17.8726 10.6463 17.4947 10.517 17.0208 10.517C16.6065 10.517 16.2435 10.6264 15.932 10.8452C15.6238 11.0606 15.3835 11.3688 15.2111 11.7699C15.0388 12.1676 14.9526 12.6383 14.9526 13.1818C14.9526 13.7386 15.0371 14.2192 15.2061 14.6236C15.3752 15.0279 15.6138 15.3411 15.9221 15.5632C16.2336 15.7853 16.5998 15.8963 17.0208 15.8963C17.3025 15.8963 17.5577 15.8449 17.7864 15.7422C18.0184 15.6361 18.2123 15.4853 18.3681 15.2898C18.5272 15.0942 18.6382 14.8589 18.7012 14.5838H20.1479C20.0949 15.0777 19.9341 15.5185 19.6657 15.9062C19.3972 16.294 19.0376 16.599 18.5868 16.821C18.1394 17.0431 17.6141 17.1541 17.0108 17.1541Z" fill="#1B1D1F"/>
</svg>
