<svg width="44" height="44" viewBox="0 0 44 44" fill="none" xmlns="http://www.w3.org/2000/svg">
<rect width="44" height="44" rx="22" fill="#EE0033"/>
<path d="M19.5 15V13.5C19.5 12.9477 19.9477 12.5 20.5 12.5H30.5C31.0523 12.5 31.5 12.9477 31.5 13.5V24.5C31.5 25.0523 31.0523 25.5 30.5 25.5H28.5" stroke="url(#paint0_linear_10137_35403)" stroke-width="2" stroke-linecap="round" stroke-linejoin="round"/>
<path d="M23.5 19H13.5C12.9477 19 12.5 19.4477 12.5 20V30C12.5 30.5523 12.9477 31 13.5 31H23.5C24.0523 31 24.5 30.5523 24.5 30V20C24.5 19.4477 24.0523 19 23.5 19Z" stroke="url(#paint1_linear_10137_35403)" stroke-width="2" stroke-linecap="round" stroke-linejoin="round"/>
<path d="M18.5 22.5V27.5" stroke="url(#paint2_linear_10137_35403)" stroke-width="2" stroke-linecap="round" stroke-linejoin="round"/>
<path d="M16 25H21" stroke="url(#paint3_linear_10137_35403)" stroke-width="2" stroke-linecap="round" stroke-linejoin="round"/>
<defs>
<linearGradient id="paint0_linear_10137_35403" x1="25.5" y1="12.5" x2="25.5" y2="25.5" gradientUnits="userSpaceOnUse">
<stop offset="0.3" stop-color="white"/>
<stop offset="1" stop-color="#FBBFCC"/>
</linearGradient>
<linearGradient id="paint1_linear_10137_35403" x1="18.5" y1="19" x2="18.5" y2="31" gradientUnits="userSpaceOnUse">
<stop offset="0.3" stop-color="white"/>
<stop offset="1" stop-color="#FBBFCC"/>
</linearGradient>
<linearGradient id="paint2_linear_10137_35403" x1="19" y1="22.5" x2="19" y2="27.5" gradientUnits="userSpaceOnUse">
<stop offset="0.3" stop-color="white"/>
<stop offset="1" stop-color="#FBBFCC"/>
</linearGradient>
<linearGradient id="paint3_linear_10137_35403" x1="18.5" y1="25" x2="18.5" y2="26" gradientUnits="userSpaceOnUse">
<stop offset="0.3" stop-color="white"/>
<stop offset="1" stop-color="#FBBFCC"/>
</linearGradient>
</defs>
</svg>
