<svg width="16" height="17" viewBox="0 0 16 17" fill="none" xmlns="http://www.w3.org/2000/svg">
<path d="M7.99992 8.50006H7.24992C7.24992 8.82288 7.45649 9.10949 7.76275 9.21157L7.99992 8.50006ZM8.74992 5.16672C8.74992 4.7525 8.41413 4.41672 7.99992 4.41672C7.58571 4.41672 7.24992 4.7525 7.24992 5.16672H8.74992ZM9.76275 9.87824C10.1557 10.0092 10.5804 9.79686 10.7114 9.4039C10.8424 9.01094 10.63 8.5862 10.2371 8.45522L9.76275 9.87824ZM8.74992 8.50006V5.16672H7.24992V8.50006H8.74992ZM7.76275 9.21157L9.76275 9.87824L10.2371 8.45522L8.23709 7.78855L7.76275 9.21157ZM13.9166 8.50006C13.9166 11.7678 11.2676 14.4167 7.99992 14.4167V15.9167C12.096 15.9167 15.4166 12.5962 15.4166 8.50006H13.9166ZM7.99992 14.4167C4.73224 14.4167 2.08325 11.7678 2.08325 8.50006H0.583252C0.583252 12.5962 3.9038 15.9167 7.99992 15.9167V14.4167ZM2.08325 8.50006C2.08325 5.23236 4.73224 2.58337 7.99992 2.58337V1.08337C3.9038 1.08337 0.583252 4.40394 0.583252 8.50006H2.08325ZM7.99992 2.58337C11.2676 2.58337 13.9166 5.23236 13.9166 8.50006H15.4166C15.4166 4.40394 12.096 1.08337 7.99992 1.08337V2.58337Z" fill="#848E94"/>
</svg>
