<svg width="40" height="40" viewBox="0 0 40 40" fill="none" xmlns="http://www.w3.org/2000/svg">
<rect width="40" height="40" rx="8" fill="#F3F4F6"/>
<path opacity="0.4" d="M10 22.5782V16.5704C10 15.7346 10.428 14.9705 11.1056 14.5967L13.1554 13.4659C13.7108 13.1595 14.3233 13 14.9443 13H16.6255C17.8664 13 19.0234 13.634 19.7739 14.691L17.8345 17.3657C17.3594 18.0209 17.4068 18.9655 17.9446 19.5588C18.5275 20.2019 19.4725 20.2019 20.0554 19.5588L21.4706 17.9974L23.7615 22.6313C24.3882 23.8991 23.7606 25.4784 22.4907 25.8287L18.9609 26.8023C17.6888 27.1532 16.3474 27.0347 15.1422 26.4647L11.2122 24.6064C10.4768 24.2587 10 23.4609 10 22.5782Z" fill="#EE0033"/>
<path d="M29.9999 22.8266V16.5704C29.9999 15.7346 29.5719 14.9705 28.8943 14.5967L26.8445 13.4659C26.289 13.1595 25.6766 13 25.0556 13H22.9224C21.7072 13 20.558 13.6094 19.7989 14.6563L17.8344 17.3657C17.3593 18.0209 17.4067 18.9655 17.9445 19.5588C18.5274 20.2019 19.4724 20.2019 20.0553 19.5588L21.4705 17.9974L23.7613 22.6313C24.1602 23.4381 24.051 24.3711 23.5916 25.0332H27.9999C29.1044 25.0332 29.9999 24.0453 29.9999 22.8266Z" fill="#EE0033"/>
</svg>
