<svg width="40" height="40" viewBox="0 0 40 40" fill="none" xmlns="http://www.w3.org/2000/svg">
<rect width="40" height="40" rx="8" fill="#F3F4F6"/>
<path opacity="0.4" d="M29 27V25.3541C29 24.5363 28.5021 23.8008 27.7428 23.4971L25.7086 22.6835C24.7429 22.2971 23.6422 22.7156 23.177 23.646L23 24C23 24 20.5 23.5 18.5 21.5C16.5 19.5 16 17 16 17L16.354 16.823C17.2844 16.3578 17.7029 15.2571 17.3165 14.2914L16.5029 12.2572C16.1992 11.4979 15.4637 11 14.6459 11H13C11.8954 11 11 11.8954 11 13C11 21.8366 18.1634 29 27 29C28.1046 29 29 28.1046 29 27Z" fill="#EE0033"/>
<path fill-rule="evenodd" clip-rule="evenodd" d="M26.4697 15.5303C26.7626 15.8232 27.2374 15.8232 27.5303 15.5303L28.8232 14.2374C29.5066 13.554 29.5066 12.446 28.8232 11.7626L27.5303 10.4697C27.2374 10.1768 26.7626 10.1768 26.4697 10.4697C26.1768 10.7626 26.1768 11.2374 26.4697 11.5303L27.7626 12.8232C27.8602 12.9209 27.8602 13.0791 27.7626 13.1768L26.4697 14.4697C26.1768 14.7626 26.1768 15.2374 26.4697 15.5303Z" fill="#EE0033"/>
<path fill-rule="evenodd" clip-rule="evenodd" d="M22.4697 15.5303C22.7626 15.8232 23.2374 15.8232 23.5303 15.5303L24.8232 14.2374C25.5066 13.554 25.5066 12.446 24.8232 11.7626L23.5303 10.4697C23.2374 10.1768 22.7626 10.1768 22.4697 10.4697C22.1768 10.7626 22.1768 11.2374 22.4697 11.5303L23.1893 12.25H21C20.5858 12.25 20.25 12.5858 20.25 13C20.25 13.4142 20.5858 13.75 21 13.75H23.1893L22.4697 14.4697C22.1768 14.7626 22.1768 15.2374 22.4697 15.5303Z" fill="#EE0033"/>
</svg>
