<svg width="16" height="17" viewBox="0 0 16 17" fill="none" xmlns="http://www.w3.org/2000/svg">
<path d="M4 10.5V9.83333C4 9.47971 4.14048 9.14057 4.39052 8.89052C4.64057 8.64048 4.97971 8.5 5.33333 8.5H10.6667C11.0203 8.5 11.3594 8.64048 11.6095 8.89052C11.8595 9.14057 12 9.47971 12 9.83333V10.5M8 6.5V8.5M2 11.8333C2 11.4797 2.14048 11.1406 2.39052 10.8905C2.64057 10.6405 2.97971 10.5 3.33333 10.5H4.66667C5.02029 10.5 5.35943 10.6405 5.60948 10.8905C5.85952 11.1406 6 11.4797 6 11.8333V13.1667C6 13.5203 5.85952 13.8594 5.60948 14.1095C5.35943 14.3595 5.02029 14.5 4.66667 14.5H3.33333C2.97971 14.5 2.64057 14.3595 2.39052 14.1095C2.14048 13.8594 2 13.5203 2 13.1667V11.8333ZM10 11.8333C10 11.4797 10.1405 11.1406 10.3905 10.8905C10.6406 10.6405 10.9797 10.5 11.3333 10.5H12.6667C13.0203 10.5 13.3594 10.6405 13.6095 10.8905C13.8595 11.1406 14 11.4797 14 11.8333V13.1667C14 13.5203 13.8595 13.8594 13.6095 14.1095C13.3594 14.3595 13.0203 14.5 12.6667 14.5H11.3333C10.9797 14.5 10.6406 14.3595 10.3905 14.1095C10.1405 13.8594 10 13.5203 10 13.1667V11.8333ZM6 3.83333C6 3.47971 6.14048 3.14057 6.39052 2.89052C6.64057 2.64048 6.97971 2.5 7.33333 2.5H8.66667C9.02029 2.5 9.35943 2.64048 9.60948 2.89052C9.85952 3.14057 10 3.47971 10 3.83333V5.16667C10 5.52029 9.85952 5.85943 9.60948 6.10948C9.35943 6.35952 9.02029 6.5 8.66667 6.5H7.33333C6.97971 6.5 6.64057 6.35952 6.39052 6.10948C6.14048 5.85943 6 5.52029 6 5.16667V3.83333Z" stroke="#848E94" stroke-width="1.5" stroke-linecap="round" stroke-linejoin="round"/>
</svg>
