<svg width="40" height="40" viewBox="0 0 40 40" fill="none" xmlns="http://www.w3.org/2000/svg">
<rect width="40" height="40" rx="8" fill="#F3F4F6"/>
<path opacity="0.4" d="M11 14C11 11.7909 12.7909 10 15 10H22L29 17V26C29 28.2091 27.2091 30 25 30H15C12.7909 30 11 28.2091 11 26V14Z" fill="#EE0033"/>
<path d="M29 17L22 10V13C22 15.2091 23.7909 17 26 17H29Z" fill="#EE0033"/>
<path fill-rule="evenodd" clip-rule="evenodd" d="M15.25 19C15.25 18.5858 15.5858 18.25 16 18.25H20C20.4142 18.25 20.75 18.5858 20.75 19C20.75 19.4142 20.4142 19.75 20 19.75H16C15.5858 19.75 15.25 19.4142 15.25 19Z" fill="#EE0033"/>
<path fill-rule="evenodd" clip-rule="evenodd" d="M15.25 24C15.25 23.5858 15.5858 23.25 16 23.25H24C24.4142 23.25 24.75 23.5858 24.75 24C24.75 24.4142 24.4142 24.75 24 24.75H16C15.5858 24.75 15.25 24.4142 15.25 24Z" fill="#EE0033"/>
</svg>
