<svg width="24" height="24" viewBox="0 0 24 24" fill="none" xmlns="http://www.w3.org/2000/svg">
<rect x="4.5" y="4.5" width="15" height="15" rx="1.5" fill="#E6E6E6" stroke="#848E94"/>
<path d="M7.91308 11.0352H7.91326C7.99256 11.0353 8.07081 11.0533 8.14213 11.088C8.21341 11.1226 8.27591 11.173 8.32497 11.2352L7.91308 11.0352ZM7.91308 11.0352H7.09394C6.89031 11.0352 6.7766 11.2698 6.90232 11.4292L6.90237 11.4293L10.1121 15.4957L10.1122 15.4957C10.3225 15.7619 10.7257 15.7611 10.9367 15.4962L10.9371 15.4957L16.6597 8.24398C16.6598 8.24378 16.66 8.24358 16.6602 8.24338C16.7884 8.08295 16.6699 7.85 16.4689 7.85H15.6498C15.4894 7.85 15.3367 7.9235 15.2376 8.05044C15.2375 8.05055 15.2374 8.05066 15.2373 8.05077L10.524 14.0216M7.91308 11.0352L10.524 14.0216M10.524 14.0216L8.32506 11.2353L10.524 14.0216Z" fill="#848E94" stroke="#848E94" stroke-width="0.3"/>
</svg>
