<svg width="45" height="44" viewBox="0 0 45 44" fill="none" xmlns="http://www.w3.org/2000/svg">
<rect x="0.5" width="44" height="44" rx="22" fill="#EE0033"/>
<path d="M20.0951 16.3161L20.0951 16.3161C20.6405 16.4136 21.169 16.5349 21.6808 16.6799C20.6199 16.9224 19.6187 17.4916 18.8385 18.3873L18.8385 18.3873L18.836 18.3903L18.7368 18.5078L18.7368 18.5077L18.7344 18.5107C17.2465 20.3282 17.145 22.9303 18.4282 24.8549C19.718 27.1883 21.8952 29.2493 24.1789 29.922L24.2495 29.6822L24.1789 29.922C25.6329 30.3503 27.0193 30.5292 28.3275 30.4526C26.6824 31.5007 24.8 32.0274 22.9155 32.0328C22.9152 32.0328 22.915 32.0328 22.9148 32.0328L22.8591 32.0328H22.8574L22.6477 32.0301C22.6473 32.0301 22.6469 32.0301 22.6464 32.0301C20.0527 31.969 17.4779 30.9206 15.5359 28.8857C15.5356 28.8854 15.5352 28.885 15.5349 28.8847L15.3742 28.7122C15.3739 28.7118 15.3735 28.7115 15.3732 28.7111C13.6328 26.7987 12.7578 24.3626 12.75 21.9225V21.8582L12.7531 21.6354C12.7531 21.635 12.7531 21.6345 12.7531 21.6341C12.7957 19.9224 13.2652 18.2204 14.1609 16.708C16.3332 16.1232 18.3094 15.9968 20.0951 16.3161ZM24.455 28.9845C23.3414 28.6565 22.3398 27.9512 21.4158 27.032C22.7454 27.4082 24.1919 27.2597 25.429 26.5865L25.5187 26.5408C26.1911 26.2223 27.0081 26.3757 27.5475 26.9149L27.5475 26.9149L29.864 29.2303C28.2452 29.646 26.4448 29.5706 24.455 28.9845ZM25.4321 17.1946L25.4288 17.1928L25.2983 17.1242L25.2984 17.1242L25.2952 17.1225C25.2711 17.1103 25.2471 17.0983 25.2231 17.0866C23.7367 16.2558 22.0835 15.6789 20.2672 15.3541L20.2232 15.6002L20.2672 15.3541C18.6345 15.0621 16.8774 15.1144 14.9994 15.5036C15.1679 15.2956 15.3462 15.0929 15.534 14.8959L15.6953 14.7306C17.6767 12.7435 20.2747 11.75 22.8748 11.75H22.8772L23.0934 11.7523C23.0938 11.7523 23.0943 11.7523 23.0947 11.7524C25.5391 11.8049 27.9678 12.7357 29.8671 14.5452L27.5497 16.8625L27.4764 16.9321C26.9134 17.4383 26.0917 17.5541 25.4321 17.1946Z" fill="url(#paint0_linear_9746_91939)" stroke="url(#paint1_linear_9746_91939)" stroke-width="0.5"/>
<path d="M31.4001 18.8796L31.4 18.8794L27.4636 21.1522L27.3643 21.2204L27.3612 21.2227C27.3571 21.2259 27.3495 21.2321 27.3396 21.2412C27.3197 21.2596 27.2917 21.2889 27.2642 21.329C27.2108 21.4069 27.1576 21.5274 27.1711 21.7001L27.1711 21.7001C27.1827 21.8498 27.2407 21.9516 27.2932 22.0161C27.32 22.049 27.3456 22.0723 27.363 22.0864C27.3717 22.0934 27.3781 22.098 27.3813 22.1002C27.3816 22.1004 27.3819 22.1006 27.3821 22.1008L31.4856 24.468C31.4894 24.4697 31.497 24.473 31.508 24.4768C31.5304 24.4848 31.5656 24.4949 31.6103 24.5005C31.6976 24.5115 31.8245 24.5058 31.9721 24.426L31.4001 18.8796ZM31.4001 18.8796L31.4067 18.8755L31.4001 18.8796ZM32.2585 23.9383V23.9302V19.3754V19.3628L32.259 19.3579V19.3507C32.2582 19.2865 32.238 19.0709 32.0359 18.922C31.9089 18.8284 31.7905 18.8027 31.6925 18.8027V18.5527L32.2585 23.9383ZM32.2585 23.9383L32.2589 23.944M32.2585 23.9383L32.2589 23.944M32.2589 23.944L32.259 23.9504C32.259 23.9576 32.2586 23.9701 32.2572 23.9866C32.2544 24.02 32.2472 24.0674 32.2301 24.1199C32.1968 24.2221 32.1276 24.342 31.9721 24.426L32.2589 23.944Z" fill="url(#paint2_linear_9746_91939)" stroke="url(#paint3_linear_9746_91939)" stroke-width="0.5"/>
<defs>
<linearGradient id="paint0_linear_9746_91939" x1="21.3651" y1="11.5" x2="21.3651" y2="32.2828" gradientUnits="userSpaceOnUse">
<stop offset="0.3" stop-color="white"/>
<stop offset="1" stop-color="#FBBFCC"/>
</linearGradient>
<linearGradient id="paint1_linear_9746_91939" x1="21.3651" y1="11.5" x2="21.3651" y2="32.2828" gradientUnits="userSpaceOnUse">
<stop offset="0.3" stop-color="white"/>
<stop offset="1" stop-color="#FBBFCC"/>
</linearGradient>
<linearGradient id="paint2_linear_9746_91939" x1="29.714" y1="18.5527" x2="29.714" y2="24.7547" gradientUnits="userSpaceOnUse">
<stop offset="0.3" stop-color="white"/>
<stop offset="1" stop-color="#FBBFCC"/>
</linearGradient>
<linearGradient id="paint3_linear_9746_91939" x1="29.714" y1="18.5527" x2="29.714" y2="24.7547" gradientUnits="userSpaceOnUse">
<stop offset="0.3" stop-color="white"/>
<stop offset="1" stop-color="#FBBFCC"/>
</linearGradient>
</defs>
</svg>
