<svg width="24" height="25" viewBox="0 0 24 25" fill="none" xmlns="http://www.w3.org/2000/svg">
<path d="M6 15.5V14.5C6 13.9696 6.21071 13.4609 6.58579 13.0858C6.96086 12.7107 7.46957 12.5 8 12.5H16C16.5304 12.5 17.0391 12.7107 17.4142 13.0858C17.7893 13.4609 18 13.9696 18 14.5V15.5M12 9.5V12.5M3 17.5C3 16.9696 3.21071 16.4609 3.58579 16.0858C3.96086 15.7107 4.46957 15.5 5 15.5H7C7.53043 15.5 8.03914 15.7107 8.41421 16.0858C8.78929 16.4609 9 16.9696 9 17.5V19.5C9 20.0304 8.78929 20.5391 8.41421 20.9142C8.03914 21.2893 7.53043 21.5 7 21.5H5C4.46957 21.5 3.96086 21.2893 3.58579 20.9142C3.21071 20.5391 3 20.0304 3 19.5V17.5ZM15 17.5C15 16.9696 15.2107 16.4609 15.5858 16.0858C15.9609 15.7107 16.4696 15.5 17 15.5H19C19.5304 15.5 20.0391 15.7107 20.4142 16.0858C20.7893 16.4609 21 16.9696 21 17.5V19.5C21 20.0304 20.7893 20.5391 20.4142 20.9142C20.0391 21.2893 19.5304 21.5 19 21.5H17C16.4696 21.5 15.9609 21.2893 15.5858 20.9142C15.2107 20.5391 15 20.0304 15 19.5V17.5ZM9 5.5C9 4.96957 9.21071 4.46086 9.58579 4.08579C9.96086 3.71071 10.4696 3.5 11 3.5H13C13.5304 3.5 14.0391 3.71071 14.4142 4.08579C14.7893 4.46086 15 4.96957 15 5.5V7.5C15 8.03043 14.7893 8.53914 14.4142 8.91421C14.0391 9.28929 13.5304 9.5 13 9.5H11C10.4696 9.5 9.96086 9.28929 9.58579 8.91421C9.21071 8.53914 9 8.03043 9 7.5V5.5Z" stroke="#848E94" stroke-width="1.5" stroke-linecap="round" stroke-linejoin="round"/>
</svg>
