<svg width="13" height="13" viewBox="0 0 13 13" fill="none" xmlns="http://www.w3.org/2000/svg">
<path d="M3.71286 1.00977C3.95008 1.00977 4.16866 1.13843 4.28383 1.34585L5.08265 2.78481C5.18724 2.97322 5.19217 3.2011 5.09578 3.39385L4.32621 4.93302C4.32621 4.93302 4.54923 6.0796 5.48259 7.01296C6.41598 7.94631 7.5587 8.16548 7.5587 8.16548L9.09761 7.39604C9.29049 7.29958 9.51854 7.30458 9.70701 7.40936L11.1501 8.21165C11.3573 8.32688 11.4858 8.54533 11.4858 8.78242V10.4391C11.4858 11.2827 10.7021 11.8921 9.9028 11.6223C8.261 11.0684 5.71253 10.0136 4.09725 8.39829C2.48197 6.78301 1.42718 4.23454 0.873213 2.59278C0.603492 1.7934 1.21283 1.00977 2.05647 1.00977H3.71286Z" stroke="#848E94" stroke-width="1.5" stroke-linejoin="round"/>
</svg>
