<svg width="25" height="24" viewBox="0 0 25 24" fill="none" xmlns="http://www.w3.org/2000/svg">
<path d="M6.25 11V6.2C6.25 5.08 6.25 4.52 6.468 4.092C6.66 3.715 6.965 3.41 7.342 3.218C7.77 3 8.33 3 9.45 3H14.25M14.25 3C14.536 3.002 14.716 3.014 14.889 3.055C15.0931 3.10416 15.2881 3.18515 15.467 3.295C15.668 3.418 15.842 3.592 16.188 3.938L19.313 7.063C19.659 7.409 19.831 7.581 19.954 7.783C20.0639 7.96183 20.1449 8.1569 20.194 8.361C20.236 8.534 20.246 8.715 20.25 9M14.25 3V5.8C14.25 6.92 14.25 7.48 14.468 7.908C14.6597 8.28431 14.9657 8.59026 15.342 8.782C15.769 9 16.329 9 17.447 9H20.25M20.25 9V17.804C20.25 18.922 20.25 19.481 20.032 19.908C19.8401 20.2842 19.5342 20.5901 19.158 20.782C18.73 21 18.17 21 17.053 21H13.25M9.25 14L11.25 16M4.25 21V18.5L11.75 11L14.25 13.5L6.75 21H4.25Z" stroke="#73777A" stroke-width="1.5" stroke-linecap="round" stroke-linejoin="round"/>
</svg>
