<svg width="24" height="24" viewBox="0 0 24 24" fill="none" xmlns="http://www.w3.org/2000/svg">
<path d="M20.498 15.5H3.5V20.5H20.498V15.5ZM21.945 14.472L21.966 14.534L21.989 14.634L21.999 14.734V21.25C21.9989 21.4315 21.933 21.6069 21.8135 21.7435C21.6939 21.8801 21.5289 21.9688 21.349 21.993L21.249 22H2.75C2.56876 22 2.39366 21.9343 2.25707 21.8152C2.12048 21.6961 2.03165 21.5315 2.007 21.352L2 21.25V14.75L2.002 14.698L2.012 14.612C2.02355 14.5598 2.03927 14.5086 2.059 14.459L4.819 8.43998C4.87106 8.3262 4.95076 8.22725 5.05084 8.15215C5.15092 8.07704 5.2682 8.02817 5.392 8.00999L5.5 8.00299L8.04 8.00199L7.25 9.37198L7.183 9.50199H5.98L3.918 14H20.07L18.043 9.65399L18.905 8.15698C18.9723 8.20765 19.0297 8.26898 19.077 8.34098L19.13 8.43599L21.945 14.472ZM13.365 2.05599L13.457 2.10099L18.645 5.10399C18.973 5.29399 19.103 5.69499 18.964 6.03699L18.919 6.12899L16.112 11H17.25C17.4414 10.998 17.6263 11.0693 17.7668 11.1993C17.9073 11.3292 17.9928 11.5079 18.0059 11.6989C18.0189 11.8898 17.9585 12.0785 17.8369 12.2263C17.7153 12.3741 17.5419 12.4699 17.352 12.494L17.25 12.501L15.248 12.5V12.503H11.169L11.166 12.5H6.75C6.56116 12.4982 6.37995 12.4253 6.24254 12.2957C6.10513 12.1662 6.02166 11.9896 6.00877 11.8012C5.99589 11.6128 6.05456 11.4264 6.17306 11.2794C6.29156 11.1324 6.46116 11.0354 6.648 11.008L6.75 11.001L8.573 11L8.391 10.895C8.23423 10.8041 8.11566 10.6596 8.0572 10.4881C7.99875 10.3166 8.00436 10.1297 8.073 9.96199L8.117 9.86999L12.434 2.37399C12.624 2.04499 13.024 1.91399 13.365 2.05399M13.355 3.77399L9.789 9.96999L11.567 11H14.384L17.249 6.02699L13.355 3.77399Z" fill="url(#paint0_linear_12999_188446)"/>
<defs>
<linearGradient id="paint0_linear_12999_188446" x1="11.9995" y1="1.99841" x2="11.9995" y2="22" gradientUnits="userSpaceOnUse">
<stop offset="0.3" stop-color="white"/>
<stop offset="1" stop-color="#FBBFCC"/>
</linearGradient>
</defs>
</svg>
