<svg width="24" height="24" viewBox="0 0 24 24" fill="none" xmlns="http://www.w3.org/2000/svg">
<g clip-path="url(#clip0_7528_913)">
<path d="M12 22C14.7614 22 17.2614 20.8807 19.0711 19.0711C20.8807 17.2614 22 14.7614 22 12C22 9.23863 20.8807 6.73863 19.0711 4.92896C17.2614 3.11932 14.7614 2.00003 12 2.00003C9.2386 2.00003 6.7386 3.11932 4.92893 4.92896C3.11929 6.73863 2 9.23863 2 12C2 14.7614 3.11929 17.2614 4.92893 19.0711C6.7386 20.8807 9.2386 22 12 22Z" stroke="#848E94" stroke-width="1.5" stroke-linejoin="round"/>
<path d="M12 14.3125V12.3125C13.6568 12.3125 15 10.9693 15 9.31248C15 7.65563 13.6568 6.31248 12 6.31248C10.3432 6.31248 9 7.65563 9 9.31248" stroke="#848E94" stroke-width="1.5" stroke-linecap="round" stroke-linejoin="round"/>
<path fill-rule="evenodd" clip-rule="evenodd" d="M12 18.8125C12.6904 18.8125 13.25 18.2528 13.25 17.5625C13.25 16.8721 12.6904 16.3125 12 16.3125C11.3097 16.3125 10.75 16.8721 10.75 17.5625C10.75 18.2528 11.3097 18.8125 12 18.8125Z" fill="#848E94"/>
</g>
<defs>
<clipPath id="clip0_7528_913">
<rect width="24" height="24" fill="white"/>
</clipPath>
</defs>
</svg>
