<svg width="16" height="16" viewBox="0 0 16 16" fill="none" xmlns="http://www.w3.org/2000/svg">
<path d="M13.3333 7.66634V4.66634L10.3333 1.33301H3.33334C2.96515 1.33301 2.66667 1.63148 2.66667 1.99967V13.9997C2.66667 14.3679 2.96515 14.6663 3.33334 14.6663H6.66667" stroke="#848E94" stroke-width="1.5" stroke-linecap="round" stroke-linejoin="round"/>
<path d="M11.3333 11.9997C12.0697 11.9997 12.6667 11.4027 12.6667 10.6663C12.6667 9.92996 12.0697 9.33301 11.3333 9.33301C10.597 9.33301 10 9.92996 10 10.6663C10 11.4027 10.597 11.9997 11.3333 11.9997Z" stroke="#848E94" stroke-width="1.5" stroke-linecap="round" stroke-linejoin="round"/>
<path d="M14 14.6667C14 13.1939 12.8061 12 11.3333 12C9.86057 12 8.66667 13.1939 8.66667 14.6667" stroke="#848E94" stroke-width="1.5" stroke-linecap="round" stroke-linejoin="round"/>
<path d="M10 1.33301V4.66634H13.3333" stroke="#848E94" stroke-width="1.5" stroke-linecap="round" stroke-linejoin="round"/>
</svg>
