<svg width="24" height="24" viewBox="0 0 24 24" fill="none" xmlns="http://www.w3.org/2000/svg">
<path d="M4.615 18C4.155 18 3.771 17.846 3.463 17.538C3.15433 17.2293 3 16.845 3 16.385V7.615C3 7.155 3.15433 6.771 3.463 6.463C3.771 6.15433 4.155 6 4.615 6H19.385C19.845 6 20.229 6.15433 20.537 6.463C20.8457 6.771 21 7.155 21 7.615V16.385C21 16.845 20.846 17.229 20.538 17.537C20.2293 17.8457 19.845 18 19.385 18H4.615ZM4.615 17H19.385C19.5383 17 19.6793 16.936 19.808 16.808C19.936 16.6793 20 16.5383 20 16.385V7.615C20 7.46167 19.936 7.32067 19.808 7.192C19.6793 7.064 19.5383 7 19.385 7H4.615C4.46167 7 4.32067 7.064 4.192 7.192C4.064 7.32067 4 7.46167 4 7.615V16.385C4 16.5383 4.064 16.6793 4.192 16.808C4.32067 16.936 4.46167 17 4.615 17ZM8.231 15.77H15.769V14.23H8.231V15.77ZM5.231 12.77H6.769V11.23H5.231V12.77ZM8.231 12.77H9.769V11.23H8.231V12.77ZM11.231 12.77H12.769V11.23H11.231V12.77ZM14.231 12.77H15.769V11.23H14.231V12.77ZM17.231 12.77H18.769V11.23H17.231V12.77ZM5.231 9.77H6.769V8.23H5.231V9.77ZM8.231 9.77H9.769V8.23H8.231V9.77ZM11.231 9.77H12.769V8.23H11.231V9.77ZM14.231 9.77H15.769V8.23H14.231V9.77ZM17.231 9.77H18.769V8.23H17.231V9.77Z" fill="#848E94"/>
</svg>
