<svg width="40" height="40" viewBox="0 0 40 40" fill="none" xmlns="http://www.w3.org/2000/svg">
<rect width="40" height="40" rx="8" fill="#F3F4F6"/>
<path d="M10 14.375V25.625C10 26.5414 10.3515 27.3725 10.9221 27.9806L14.2708 20.4224C14.966 18.7973 16.5171 17.75 18.2287 17.75H27.3247V16.625C27.3247 14.761 25.8704 13.25 24.0763 13.25H20.7227C20.1448 13.25 19.5773 13.0898 19.0788 12.7859L16.9105 11.4641C16.412 11.1602 15.8445 11 15.2666 11H13.2484C11.4544 11 10 12.511 10 14.375Z" fill="#EE0033"/>
<path opacity="0.4" d="M18.2285 17.75C16.5168 17.75 14.9657 18.7973 14.2706 20.4224L10.9219 27.9806C11.5119 28.6095 12.3361 29 13.2482 29H22.7066C24.228 29 25.6378 28.1707 26.4206 26.8152L29.6878 21.1576C30.5539 19.6579 29.5141 17.75 27.8308 17.75H18.2285Z" fill="#EE0033"/>
</svg>
