<svg width="25" height="24" viewBox="0 0 25 24" fill="none" xmlns="http://www.w3.org/2000/svg">
<path d="M21.75 13.255C18.8905 14.4112 15.8344 15.0038 12.75 15C9.567 15 6.53 14.38 3.75 13.255M16.75 6V4C16.75 3.46957 16.5393 2.96086 16.1642 2.58579C15.7891 2.21071 15.2804 2 14.75 2H10.75C10.2196 2 9.71086 2.21071 9.33579 2.58579C8.96071 2.96086 8.75 3.46957 8.75 4V6M12.75 12H12.76M5.75 20H19.75C20.2804 20 20.7891 19.7893 21.1642 19.4142C21.5393 19.0391 21.75 18.5304 21.75 18V8C21.75 7.46957 21.5393 6.96086 21.1642 6.58579C20.7891 6.21071 20.2804 6 19.75 6H5.75C5.21957 6 4.71086 6.21071 4.33579 6.58579C3.96071 6.96086 3.75 7.46957 3.75 8V18C3.75 18.5304 3.96071 19.0391 4.33579 19.4142C4.71086 19.7893 5.21957 20 5.75 20Z" stroke="#73777A" stroke-width="1.5" stroke-linecap="round" stroke-linejoin="round"/>
</svg>
