<svg width="24" height="24" viewBox="0 0 24 24" fill="none" xmlns="http://www.w3.org/2000/svg">
<g clip-path="url(#clip0_12311_25240)">
<path d="M24 0H0V24H24V0Z" fill="white" fill-opacity="0.01"/>
<path d="M9.5 10C11.433 10 13 8.433 13 6.5C13 4.56701 11.433 3 9.5 3C7.567 3 6 4.56701 6 6.5C6 8.433 7.567 10 9.5 10Z" stroke="#EE0033" stroke-width="2" stroke-linecap="round" stroke-linejoin="round"/>
<path d="M16.3037 3.5C17.3201 4.11245 17.9999 5.22685 17.9999 6.5C17.9999 7.77315 17.3201 8.88755 16.3037 9.5" stroke="#EE0033" stroke-width="2" stroke-linecap="round" stroke-linejoin="round"/>
<path d="M2 20.4V21H17V20.4C17 18.1598 17 17.0397 16.5641 16.184C16.1806 15.4314 15.5686 14.8195 14.816 14.436C13.9603 14 12.8402 14 10.6 14H8.4C6.1598 14 5.0397 14 4.18404 14.436C3.43139 14.8195 2.81947 15.4314 2.43598 16.184C2 17.0397 2 18.1598 2 20.4Z" stroke="#EE0033" stroke-width="2" stroke-linecap="round" stroke-linejoin="round"/>
<path d="M21.9995 21.0001V20.4001C21.9995 18.1599 21.9995 17.0398 21.5635 16.1841C21.18 15.4315 20.5681 14.8195 19.8154 14.436" stroke="#EE0033" stroke-width="2" stroke-linecap="round" stroke-linejoin="round"/>
</g>
<defs>
<clipPath id="clip0_12311_25240">
<rect width="24" height="24" fill="white"/>
</clipPath>
</defs>
</svg>
