<svg width="40" height="40" viewBox="0 0 40 40" fill="none" xmlns="http://www.w3.org/2000/svg">
<rect width="40" height="40" rx="8" fill="#F3F4F6"/>
<path opacity="0.4" d="M11 15.5C11 13.2909 12.7909 11.5 15 11.5H25C27.2091 11.5 29 13.2909 29 15.5V17V26C29 28.2091 27.2091 30 25 30H15C12.7909 30 11 28.2091 11 26V17V15.5Z" fill="#EE0033"/>
<path d="M25 11.5H15C12.7909 11.5 11 13.2909 11 15.5V17H29V15.5C29 13.2909 27.2091 11.5 25 11.5Z" fill="#EE0033"/>
<path opacity="0.4" fill-rule="evenodd" clip-rule="evenodd" d="M16 9.25C16.4142 9.25 16.75 9.58579 16.75 10V13C16.75 13.4142 16.4142 13.75 16 13.75C15.5858 13.75 15.25 13.4142 15.25 13V10C15.25 9.58579 15.5858 9.25 16 9.25ZM24 9.25C24.4142 9.25 24.75 9.58579 24.75 10V13C24.75 13.4142 24.4142 13.75 24 13.75C23.5858 13.75 23.25 13.4142 23.25 13V10C23.25 9.58579 23.5858 9.25 24 9.25Z" fill="#EE0033"/>
<circle cx="20" cy="23" r="1" fill="#EE0033"/>
<circle cx="24" cy="23" r="1" fill="#EE0033"/>
<circle cx="16" cy="23" r="1" fill="#EE0033"/>
</svg>
