<svg width="24" height="24" viewBox="0 0 24 24" fill="none" xmlns="http://www.w3.org/2000/svg">
<rect width="24" height="24" rx="6" fill="#EE0033"/>
<path d="M9.18103 5.62604L9.89903 5.3967C10.571 5.18204 11.2897 5.52937 11.5777 6.20804L12.151 7.56004C12.401 8.1487 12.2624 8.84137 11.8084 9.27204L10.5464 10.4707C10.6241 11.188 10.865 11.894 11.269 12.5887C11.6532 13.2606 12.168 13.8488 12.783 14.3187L14.3004 13.812C14.875 13.6207 15.501 13.8414 15.8537 14.3594L16.675 15.566C17.0857 16.1687 17.0117 16.9994 16.503 17.51L15.9577 18.0574C15.415 18.602 14.6404 18.8 13.923 18.576C12.2306 18.048 10.6744 16.4807 9.25437 13.874C7.83259 11.2629 7.33081 9.04781 7.74903 7.2287C7.92503 6.46337 8.47037 5.85337 9.18237 5.62604" fill="white"/>
</svg>
