<svg width="38" height="34" viewBox="0 0 38 34" fill="none" xmlns="http://www.w3.org/2000/svg">
<rect width="38" height="34" rx="8" fill="#F3F4F6"/>
<mask id="path-2-inside-1_7400_70333" fill="white">
<path d="M12.5 9C12.5 8.44772 12.9477 8 13.5 8H24.5C25.0523 8 25.5 8.44772 25.5 9V10C25.5 10.5523 25.0523 11 24.5 11H13.5C12.9477 11 12.5 10.5523 12.5 10V9Z"/>
</mask>
<path d="M11.5 9C11.5 7.89543 12.3954 7 13.5 7H24.5C25.6046 7 26.5 7.89543 26.5 9H24.5H13.5H11.5ZM25.5 11H12.5H25.5ZM13.5 11C12.3954 11 11.5 10.1046 11.5 9C11.5 7.89543 12.3954 7 13.5 7V9V10C13.5 10.5523 13.5 11 13.5 11ZM24.5 7C25.6046 7 26.5 7.89543 26.5 9C26.5 10.1046 25.6046 11 24.5 11C24.5 11 24.5 10.5523 24.5 10V9V7Z" fill="#F899AD" mask="url(#path-2-inside-1_7400_70333)"/>
<path d="M9 21H29V25C29 25.5523 28.5523 26 28 26H10C9.44772 26 9 25.5523 9 25V21Z" fill="#EE0033" fill-opacity="0.4"/>
<rect x="8" y="11" width="22" height="10" rx="1" fill="#EE0033" fill-opacity="0.8"/>
<rect x="12" y="20" width="2" height="2" fill="#EE0033"/>
<path d="M12 10.5C12 10.2239 12.2239 10 12.5 10H13.5C13.7761 10 14 10.2239 14 10.5V11H12V10.5Z" fill="#EE0033"/>
<path d="M24 10.5C24 10.2239 24.2239 10 24.5 10H25.5C25.7761 10 26 10.2239 26 10.5V11H24V10.5Z" fill="#EE0033"/>
<rect x="24" y="20" width="2" height="2" fill="#EE0033"/>
</svg>
