<svg width="25" height="24" viewBox="0 0 25 24" fill="none" xmlns="http://www.w3.org/2000/svg">
<path d="M2.75 9.5H21.75M2.75 9.5V20C2.75 20.2652 2.85536 20.5196 3.04289 20.7071C3.23043 20.8946 3.48478 21 3.75 21H20.75C21.0152 21 21.2696 20.8946 21.4571 20.7071C21.6446 20.5196 21.75 20.2652 21.75 20V9.5M2.75 9.5V4.5C2.75 4.23478 2.85536 3.98043 3.04289 3.79289C3.23043 3.60536 3.48478 3.5 3.75 3.5H20.75C21.0152 3.5 21.2696 3.60536 21.4571 3.79289C21.6446 3.98043 21.75 4.23478 21.75 4.5V9.5" stroke="#73777A" stroke-width="1.5" stroke-linejoin="round"/>
<path d="M8.25 2V6M16.25 2V6M14.25 17H17.25M7.25 17H10.25M14.25 13H17.25M7.25 13H10.25" stroke="#73777A" stroke-width="1.5" stroke-linecap="round" stroke-linejoin="round"/>
</svg>
