<svg width="168" height="150" viewBox="0 0 168 150" fill="none" xmlns="http://www.w3.org/2000/svg">
<path fill-rule="evenodd" clip-rule="evenodd" d="M160.5 40C164.366 40 167.5 43.134 167.5 47C167.5 50.866 164.366 54 160.5 54H120.5C124.366 54 127.5 57.134 127.5 61C127.5 64.866 124.366 68 120.5 68H142.5C146.366 68 149.5 71.134 149.5 75C149.5 78.866 146.366 82 142.5 82H132.326C127.452 82 123.5 85.134 123.5 89C123.5 91.5773 125.5 93.9107 129.5 96C133.366 96 136.5 99.134 136.5 103C136.5 106.866 133.366 110 129.5 110H46.5C42.634 110 39.5 106.866 39.5 103C39.5 99.134 42.634 96 46.5 96H7.5C3.63401 96 0.5 92.866 0.5 89C0.5 85.134 3.63401 82 7.5 82H47.5C51.366 82 54.5 78.866 54.5 75C54.5 71.134 51.366 68 47.5 68H22.5C18.634 68 15.5 64.866 15.5 61C15.5 57.134 18.634 54 22.5 54H62.5C58.634 54 55.5 50.866 55.5 47C55.5 43.134 58.634 40 62.5 40H160.5ZM160.5 68C164.366 68 167.5 71.134 167.5 75C167.5 78.866 164.366 82 160.5 82C156.634 82 153.5 78.866 153.5 75C153.5 71.134 156.634 68 160.5 68Z" fill="#F0F0F0"/>
<path fill-rule="evenodd" clip-rule="evenodd" d="M107.171 39.0007L116.473 106.843L117.309 113.65C117.578 115.842 116.019 117.838 113.826 118.107L55.266 125.298C53.0733 125.567 51.0776 124.008 50.8083 121.815L41.7926 48.3874C41.658 47.2911 42.4376 46.2932 43.5339 46.1586C43.5408 46.1578 43.5478 46.1569 43.5547 46.1562L48.4131 45.6112M52.3416 45.1705L56.9287 44.656L52.3416 45.1705Z" fill="white"/>
<path d="M108.41 38.8309C108.316 38.1469 107.685 37.6685 107.002 37.7623C106.318 37.856 105.839 38.4865 105.933 39.1705L108.41 38.8309ZM116.473 106.843L117.714 106.691C117.713 106.685 117.712 106.679 117.712 106.674L116.473 106.843ZM117.309 113.65L118.55 113.497L117.309 113.65ZM113.826 118.107L113.979 119.348L113.826 118.107ZM55.266 125.298L55.4183 126.538L55.266 125.298ZM50.8083 121.815L52.049 121.663L50.8083 121.815ZM43.5547 46.1562L43.6941 47.3984L43.5547 46.1562ZM48.5524 46.8534C49.2385 46.7764 49.7322 46.1579 49.6553 45.4718C49.5783 44.7858 48.9598 44.292 48.2737 44.369L48.5524 46.8534ZM52.2023 43.9283C51.5162 44.0053 51.0224 44.6238 51.0994 45.3098C51.1764 45.9959 51.7949 46.4897 52.4809 46.4127L52.2023 43.9283ZM57.068 45.8982C57.7541 45.8212 58.2478 45.2027 58.1709 44.5166C58.0939 43.8306 57.4754 43.3368 56.7893 43.4137L57.068 45.8982ZM105.933 39.1705L115.235 107.013L117.712 106.674L108.41 38.8309L105.933 39.1705ZM115.233 106.996L116.068 113.802L118.55 113.497L117.714 106.691L115.233 106.996ZM116.068 113.802C116.253 115.31 115.181 116.682 113.674 116.867L113.979 119.348C116.856 118.995 118.903 116.375 118.55 113.497L116.068 113.802ZM113.674 116.867L55.1137 124.057L55.4183 126.538L113.979 119.348L113.674 116.867ZM55.1137 124.057C53.6062 124.242 52.2341 123.17 52.049 121.663L49.5677 121.967C49.921 124.845 52.5404 126.892 55.4183 126.538L55.1137 124.057ZM52.049 121.663L43.0332 48.2351L40.5519 48.5398L49.5677 121.967L52.049 121.663ZM43.0332 48.2351C42.9828 47.824 43.2751 47.4498 43.6863 47.3993L43.3816 44.9179C41.6 45.1367 40.3331 46.7582 40.5519 48.5398L43.0332 48.2351ZM43.6863 47.3993C43.6889 47.399 43.6915 47.3987 43.6941 47.3984L43.4154 44.914C43.4041 44.9152 43.3928 44.9165 43.3816 44.9179L43.6863 47.3993ZM43.6941 47.3984L48.5524 46.8534L48.2737 44.369L43.4154 44.914L43.6941 47.3984ZM52.4809 46.4127L57.068 45.8982L56.7893 43.4137L52.2023 43.9283L52.4809 46.4127Z" fill="#F4597A"/>
<path fill-rule="evenodd" clip-rule="evenodd" d="M104.64 43.2686L113.059 104.752L113.817 110.921C114.061 112.908 112.667 114.714 110.703 114.955L58.261 121.394C56.2974 121.635 54.5079 120.22 54.2639 118.233L46.1139 51.8562C45.9792 50.7599 46.7589 49.762 47.8552 49.6274L54.3428 48.8308" fill="#FFF1F4"/>
<path d="M61.4214 29C61.4214 27.4812 62.6526 26.25 64.1714 26.25H109.728C110.457 26.25 111.156 26.5395 111.672 27.0549L125.115 40.4898C125.631 41.0056 125.921 41.7053 125.921 42.4349V105C125.921 106.519 124.69 107.75 123.171 107.75H64.1714C62.6526 107.75 61.4214 106.519 61.4214 105V29Z" fill="white" stroke="#F4597A" stroke-width="2.5"/>
<path d="M110.171 27.4023V38.9995C110.171 40.6564 111.515 41.9995 113.171 41.9995H121.105" stroke="#F4597A" stroke-width="2.5" stroke-linecap="round" stroke-linejoin="round"/>
</svg>
