<svg width="168" height="88" viewBox="0 0 168 88" fill="none" xmlns="http://www.w3.org/2000/svg">
<path fill-rule="evenodd" clip-rule="evenodd" d="M160.5 1C164.366 1 167.5 4.13401 167.5 8C167.5 11.866 164.366 15 160.5 15H120.5C124.366 15 127.5 18.134 127.5 22C127.5 25.866 124.366 29 120.5 29H142.5C146.366 29 149.5 32.134 149.5 36C149.5 39.866 146.366 43 142.5 43H132.326C127.452 43 123.5 46.134 123.5 50C123.5 52.5773 125.5 54.9107 129.5 57C133.366 57 136.5 60.134 136.5 64C136.5 67.866 133.366 71 129.5 71H46.5C42.634 71 39.5 67.866 39.5 64C39.5 60.134 42.634 57 46.5 57H7.5C3.63401 57 0.5 53.866 0.5 50C0.5 46.134 3.63401 43 7.5 43H47.5C51.366 43 54.5 39.866 54.5 36C54.5 32.134 51.366 29 47.5 29H22.5C18.634 29 15.5 25.866 15.5 22C15.5 18.134 18.634 15 22.5 15H62.5C58.634 15 55.5 11.866 55.5 8C55.5 4.13401 58.634 1 62.5 1H160.5ZM160.5 29C164.366 29 167.5 32.134 167.5 36C167.5 39.866 164.366 43 160.5 43C156.634 43 153.5 39.866 153.5 36C153.5 32.134 156.634 29 160.5 29Z" fill="#F0F0F0"/>
<path d="M74 69C92.5015 69 107.5 54.0015 107.5 35.5C107.5 16.9985 92.5015 2 74 2C55.4985 2 40.5 16.9985 40.5 35.5C40.5 54.0015 55.4985 69 74 69Z" fill="#F0F0F0" stroke="#F4597A" stroke-width="2.5"/>
<path fill-rule="evenodd" clip-rule="evenodd" d="M68.6321 61.4939C70.3908 61.8185 72.1801 61.9872 74 62C88.6355 62 100.5 50.1355 100.5 35.5C100.5 20.8645 88.6355 9 74 9C70.2404 9 66.6636 9.78293 63.4238 11.1946C57.7938 13.6479 53.1816 17.9999 50.396 23.4419C48.5445 27.0589 47.5 31.1575 47.5 35.5C47.5 39.44 48.3599 43.1792 49.9021 46.5401C51.0032 48.9396 52.4521 51.1463 54.1843 53.0956" fill="white"/>
<path d="M68.6321 61.4939C70.3908 61.8185 72.1801 61.9872 74 62C88.6355 62 100.5 50.1355 100.5 35.5C100.5 20.8645 88.6355 9 74 9C70.2404 9 66.6636 9.78293 63.4238 11.1946C57.7938 13.6479 53.1816 17.9999 50.396 23.4419C48.5445 27.0589 47.5 31.1575 47.5 35.5C47.5 39.44 48.3599 43.1792 49.9021 46.5401C51.0032 48.9396 52.4521 51.1463 54.1843 53.0956" stroke="#F4597A" stroke-width="2.5" stroke-linecap="round"/>
<path d="M57.2979 56.0747C59.446 57.8207 61.8728 59.237 64.5013 60.2466" stroke="#F4597A" stroke-width="2.5" stroke-linecap="round"/>
<path d="M101.5 62L107.5 68" stroke="#F4597A" stroke-width="2.5"/>
<path fill-rule="evenodd" clip-rule="evenodd" d="M106.53 67.0303C104.637 68.923 104.637 71.9917 106.53 73.8844L117.615 84.9697C119.508 86.8624 122.577 86.8624 124.469 84.9697C126.362 83.077 126.362 80.0083 124.469 78.1156L113.384 67.0303C111.491 65.1376 108.423 65.1376 106.53 67.0303Z" fill="#FFF1F4" stroke="#F4597A" stroke-width="2.5"/>
<path d="M111.5 69L122.5 80" stroke="white" stroke-width="2.5" stroke-linecap="round"/>
<path fill-rule="evenodd" clip-rule="evenodd" d="M67.5005 24C67.5005 35.598 76.9025 45 88.5005 45C90.7789 45 92.9725 44.6372 95.0267 43.9662C91.6737 52.2871 83.523 58.1607 74.0005 58.1607C61.4854 58.1607 51.3398 48.0152 51.3398 35.5C51.3398 24.1596 59.6702 14.7648 70.5455 13.1011C68.6135 16.2793 67.5005 20.0097 67.5005 24Z" fill="#FFF1F4"/>
<path d="M74.5 17C73.2266 17 71.9825 17.1253 70.7793 17.3642M67.1447 18.4761C60.3039 21.3508 55.5 28.1144 55.5 36" stroke="#F4597A" stroke-width="2.5" stroke-linecap="round"/>
<path d="M127.676 35.7773H119.5M134 28H116.824H134ZM141 28H138.779H141Z" stroke="#F4597A" stroke-width="2.5" stroke-linecap="round" stroke-linejoin="round"/>
<path d="M37.6763 57.7773H29.5005M33.0005 49H15.8247H33.0005ZM10.0005 49H5.7793H10.0005Z" stroke="#F4597A" stroke-width="2.5" stroke-linecap="round" stroke-linejoin="round"/>
</svg>
