<svg width="29" height="28" viewBox="0 0 29 28" fill="none" xmlns="http://www.w3.org/2000/svg">
<path d="M11.25 21C11.25 21.9283 11.6187 22.8185 12.2751 23.4749C12.9315 24.1313 13.8217 24.5 14.75 24.5C15.6783 24.5 16.5685 24.1313 17.2249 23.4749C17.8813 22.8185 18.25 21.9283 18.25 21" stroke="#286FDF" stroke-width="2" stroke-linecap="round" stroke-linejoin="round"/>
<path d="M6.87462 11.375C6.87462 9.28642 7.7043 7.28338 9.18115 5.80653C10.658 4.32968 12.661 3.5 14.7496 3.5C16.8382 3.5 18.8412 4.32968 20.3181 5.80653C21.7949 7.28338 22.6246 9.28642 22.6246 11.375C22.6246 15.2928 23.5324 18.4406 24.2543 19.6875C24.331 19.8203 24.3714 19.9709 24.3715 20.1242C24.3717 20.2776 24.3315 20.4282 24.2551 20.5612C24.1786 20.6941 24.0686 20.8046 23.936 20.8816C23.8035 20.9586 23.653 20.9995 23.4996 21H5.99962C5.84647 20.9991 5.69625 20.958 5.56396 20.8808C5.43168 20.8036 5.32197 20.6931 5.24579 20.5602C5.16962 20.4274 5.12965 20.2768 5.12988 20.1237C5.13012 19.9705 5.17054 19.8201 5.24712 19.6875C5.9679 18.4406 6.87462 15.2917 6.87462 11.375Z" fill="#A9CAFF" stroke="#286FDF" stroke-width="2" stroke-linecap="round" stroke-linejoin="round"/>
</svg>
