<svg width="24" height="25" viewBox="0 0 24 25" fill="none" xmlns="http://www.w3.org/2000/svg">
<g clip-path="url(#clip0_10137_38597)">
<rect y="0.5" width="24" height="24" rx="6" fill="#EE0033"/>
<path d="M10.3347 7.338C10.2357 7.09071 10.065 6.87872 9.84444 6.72936C9.6239 6.58 9.36369 6.50012 9.09733 6.5H7.26333C6.92828 6.5 6.60694 6.6331 6.37002 6.87002C6.1331 7.10694 6 7.42828 6 7.76333C6 13.6927 10.8067 18.5 16.7373 18.5C17.0723 18.4998 17.3934 18.3666 17.6302 18.1297C17.867 17.8928 18 17.5716 18 17.2367V15.4027C18 15.1362 17.9202 14.8758 17.7708 14.6552C17.6215 14.4345 17.4094 14.2637 17.162 14.1647L15.4047 13.462C15.1815 13.3727 14.9384 13.3454 14.701 13.3829C14.4635 13.4205 14.2407 13.5215 14.056 13.6753L13.6027 14.054C13.347 14.2672 13.0208 14.377 12.6882 14.3619C12.3557 14.3469 12.0408 14.208 11.8053 13.9727L10.528 12.6933C10.2928 12.4581 10.1539 12.1435 10.1388 11.8112C10.1236 11.4789 10.2332 11.153 10.446 10.8973L10.824 10.444C10.9782 10.2594 11.0795 10.0365 11.1173 9.79892C11.1551 9.56137 11.1279 9.31803 11.0387 9.09467L10.3347 7.338Z" stroke="white" stroke-width="1.5" stroke-linecap="round" stroke-linejoin="round"/>
</g>
<defs>
<clipPath id="clip0_10137_38597">
<rect y="0.5" width="24" height="24" rx="6" fill="white"/>
</clipPath>
</defs>
</svg>
