<svg width="13" height="13" viewBox="0 0 13 13" fill="none" xmlns="http://www.w3.org/2000/svg">
<path d="M3.7131 1.00977C3.95033 1.00977 4.16891 1.13843 4.28407 1.34585L5.0829 2.78481C5.18748 2.97322 5.19242 3.2011 5.09602 3.39385L4.32646 4.93302C4.32646 4.93302 4.54948 6.0796 5.48283 7.01296C6.41622 7.94631 7.55895 8.16548 7.55895 8.16548L9.09785 7.39604C9.29073 7.29958 9.51878 7.30458 9.70726 7.40936L11.1503 8.21165C11.3575 8.32688 11.486 8.54533 11.486 8.78242V10.4391C11.486 11.2827 10.7024 11.8921 9.90304 11.6223C8.26125 11.0684 5.71277 10.0136 4.09749 8.39829C2.48221 6.78301 1.42743 4.23454 0.873457 2.59278C0.603736 1.7934 1.21307 1.00977 2.05671 1.00977H3.7131Z" stroke="#848E94" stroke-width="1.5" stroke-linejoin="round"/>
</svg>
