<svg width="44" height="44" viewBox="0 0 44 44" fill="none" xmlns="http://www.w3.org/2000/svg">
<rect width="44" height="44" rx="22" fill="#EE0033"/>
<g clip-path="url(#clip0_10137_28580)">
<path d="M34 10H10V34H34V10Z" fill="white" fill-opacity="0.01"/>
<path d="M34 10H10V34H34V10Z" fill="white" fill-opacity="0.01"/>
<path d="M22 32C27.5229 32 32 27.5229 32 22C32 16.4771 27.5229 12 22 12C16.4771 12 12 16.4771 12 22C12 27.5229 16.4771 32 22 32Z" stroke="url(#paint0_linear_10137_28580)" stroke-width="2" stroke-linecap="round" stroke-linejoin="round"/>
<path d="M26.7712 23.5C26.1341 25.5285 24.2389 27 22.0001 27C19.7613 27 17.8662 25.5285 17.229 23.5V26.5" stroke="url(#paint1_linear_10137_28580)" stroke-width="2" stroke-linecap="round" stroke-linejoin="round"/>
<path d="M26.7712 17.5V20.5C26.1341 18.4715 24.2389 17 22.0001 17C19.7613 17 17.8662 18.4715 17.229 20.5" stroke="url(#paint2_linear_10137_28580)" stroke-width="2" stroke-linecap="round" stroke-linejoin="round"/>
</g>
<defs>
<linearGradient id="paint0_linear_10137_28580" x1="22" y1="12" x2="22" y2="32" gradientUnits="userSpaceOnUse">
<stop offset="0.3" stop-color="white"/>
<stop offset="1" stop-color="#FBBFCC"/>
</linearGradient>
<linearGradient id="paint1_linear_10137_28580" x1="22.0001" y1="23.5" x2="22.0001" y2="27" gradientUnits="userSpaceOnUse">
<stop offset="0.3" stop-color="white"/>
<stop offset="1" stop-color="#FBBFCC"/>
</linearGradient>
<linearGradient id="paint2_linear_10137_28580" x1="22.0001" y1="17" x2="22.0001" y2="20.5" gradientUnits="userSpaceOnUse">
<stop offset="0.3" stop-color="white"/>
<stop offset="1" stop-color="#FBBFCC"/>
</linearGradient>
<clipPath id="clip0_10137_28580">
<rect width="24" height="24" fill="white" transform="translate(10 10)"/>
</clipPath>
</defs>
</svg>
