<svg width="16" height="17" viewBox="0 0 16 17" fill="none" xmlns="http://www.w3.org/2000/svg">
<g clip-path="url(#clip0_6942_26358)">
<path d="M16 0.5H0V16.5H16V0.5Z" fill="white" fill-opacity="0.01"/>
<path d="M8.00008 7.16667C9.28875 7.16667 10.3334 6.122 10.3334 4.83333C10.3334 3.54467 9.28875 2.5 8.00008 2.5C6.71141 2.5 5.66675 3.54467 5.66675 4.83333C5.66675 6.122 6.71141 7.16667 8.00008 7.16667Z" stroke="#848E94" stroke-width="1.5" stroke-linecap="round" stroke-linejoin="round"/>
<path d="M2 14.0999V14.4999H14V14.0999C14 12.6065 14 11.8597 13.7094 11.2893C13.4537 10.7875 13.0457 10.3796 12.544 10.1239C11.9735 9.83325 11.2268 9.83325 9.73333 9.83325H6.26667C4.7732 9.83325 4.02647 9.83325 3.45603 10.1239C2.95426 10.3796 2.54631 10.7875 2.29065 11.2893C2 11.8597 2 12.6065 2 14.0999Z" stroke="#848E94" stroke-width="1.5" stroke-linecap="round" stroke-linejoin="round"/>
</g>
<defs>
<clipPath id="clip0_6942_26358">
<rect width="16" height="16" fill="white" transform="translate(0 0.5)"/>
</clipPath>
</defs>
</svg>
