<svg width="26" height="26" viewBox="0 0 26 26" fill="none" xmlns="http://www.w3.org/2000/svg">
<path d="M21.2875 3.25006H4.7125C3.90478 3.25006 3.25 3.90484 3.25 4.71256V21.2876C3.25 22.0953 3.90478 22.75 4.7125 22.75H21.2875C22.0952 22.75 22.75 22.0953 22.75 21.2876V4.71256C22.75 3.90484 22.0952 3.25006 21.2875 3.25006Z" stroke="white" stroke-width="2" stroke-linejoin="round"/>
<path d="M20 15L16 20M16 15L20 20" stroke="white" stroke-width="2.5" stroke-linecap="round" stroke-linejoin="round"/>
<path d="M17.3333 3.25V13H8.125V3.25H17.3333Z" stroke="url(#paint0_linear_18575_53758)" stroke-width="2" stroke-linejoin="round"/>
<path d="M14.083 7.04172V9.20838" stroke="url(#paint1_linear_18575_53758)" stroke-width="2" stroke-linecap="round"/>
<path d="M5.95703 3.25006H19.4996" stroke="white" stroke-width="2" stroke-linecap="round"/>
<defs>
<linearGradient id="paint0_linear_18575_53758" x1="12.7292" y1="3.25" x2="12.7292" y2="13" gradientUnits="userSpaceOnUse">
<stop offset="0.3" stop-color="white"/>
<stop offset="1" stop-color="#FBBFCC"/>
</linearGradient>
<linearGradient id="paint1_linear_18575_53758" x1="14.583" y1="7.04172" x2="14.583" y2="9.20838" gradientUnits="userSpaceOnUse">
<stop offset="0.3" stop-color="white"/>
<stop offset="1" stop-color="#FBBFCC"/>
</linearGradient>
</defs>
</svg>
