<svg width="40" height="40" viewBox="0 0 40 40" fill="none" xmlns="http://www.w3.org/2000/svg">
<rect width="40" height="40" rx="8" fill="#F3F4F6"/>
<path opacity="0.4" fill-rule="evenodd" clip-rule="evenodd" d="M10.25 29C10.25 28.5858 10.5858 28.25 11 28.25H29C29.4142 28.25 29.75 28.5858 29.75 29C29.75 29.4142 29.4142 29.75 29 29.75H11C10.5858 29.75 10.25 29.4142 10.25 29Z" fill="#EE0033"/>
<path d="M15.3196 25.9881L18.7523 25.4977C19.2475 25.427 19.7064 25.1976 20.06 24.8439L26.6883 18.2156C26.6883 18.2156 25.0537 18.2156 23.419 16.581C21.7844 14.9464 21.7844 13.3118 21.7844 13.3118L15.1562 19.94C14.8025 20.2937 14.5731 20.7526 14.5023 21.2477L14.0119 24.6804C13.903 25.4433 14.5568 26.0971 15.3196 25.9881Z" fill="#EE0033"/>
<path opacity="0.4" d="M28.3227 13.3117L26.6881 11.6771C25.7853 10.7743 24.3216 10.7743 23.4188 11.6771L21.7842 13.3117C21.7842 13.3117 21.7842 14.9463 23.4188 16.581C25.0534 18.2156 26.6881 18.2156 26.6881 18.2156L28.3227 16.581C29.2255 15.6782 29.2255 14.2145 28.3227 13.3117Z" fill="#EE0033"/>
</svg>
