<svg width="16" height="17" viewBox="0 0 16 17" fill="none" xmlns="http://www.w3.org/2000/svg">
<g clip-path="url(#clip0_18256_146579)">
<path d="M14 7.16679V5.50014C14 4.02739 12.8061 2.83349 11.3333 2.83349H4.66667C3.19391 2.83349 2 4.02739 2 5.50014V12.5001C2 13.9728 3.19391 15.1667 4.66667 15.1667H6M5.33333 1.8335V3.83348M10.6667 1.8335V3.83348M8 15.1667L10.0405 14.585C10.1499 14.5538 10.2495 14.4952 10.33 14.4148L13.6732 11.0716C14.1089 10.6359 14.1089 9.92936 13.6732 9.4936C13.2374 9.05783 12.5309 9.05783 12.0951 9.4936L8.75192 12.8368C8.67149 12.9172 8.6129 13.0168 8.58171 13.1262L8 15.1667Z" stroke="#848E94" stroke-width="1.5" stroke-linecap="round"/>
<path d="M8.47168 6.69517L9.33361 7.55709C9.59396 7.81744 9.59396 8.23955 9.33361 8.49989L8.47168 9.36182M6.47168 8.02849H9.13835" stroke="#848E94" stroke-width="1.5" stroke-linecap="round"/>
</g>
<defs>
<clipPath id="clip0_18256_146579">
<rect width="16" height="15.9999" fill="white" transform="translate(0 0.5)"/>
</clipPath>
</defs>
</svg>
