<svg width="16" height="16" viewBox="0 0 16 16" fill="none" xmlns="http://www.w3.org/2000/svg">
<path d="M7.00033 2.66663C6.14327 2.66663 5.30547 2.92077 4.59286 3.39692C3.88024 3.87308 3.32483 4.54985 2.99685 5.34166C2.66887 6.13348 2.58306 7.00477 2.75026 7.84535C2.91746 8.68593 3.33017 9.45806 3.9362 10.0641C4.54223 10.6701 5.31435 11.0828 6.15494 11.25C6.99552 11.4172 7.86681 11.3314 8.65862 11.0034C9.45044 10.6755 10.1272 10.12 10.6034 9.40743C11.0795 8.69482 11.3337 7.85701 11.3337 6.99996C11.3336 5.85071 10.877 4.74855 10.0644 3.93591C9.25173 3.12327 8.14958 2.6667 7.00033 2.66663Z" stroke="#8F9294" stroke-width="1.5" stroke-miterlimit="10"/>
<path d="M10 10L13.3333 13.3333" stroke="#8F9294" stroke-width="1.5" stroke-miterlimit="10" stroke-linecap="round"/>
</svg>
