<svg width="40" height="40" viewBox="0 0 40 40" fill="none" xmlns="http://www.w3.org/2000/svg">
<rect width="40" height="40" rx="8" fill="#F3F4F6"/>
<path opacity="0.4" d="M12 27V12C12 10.8954 12.8954 10 14 10H23L28 15V27H12Z" fill="#EE0033"/>
<path d="M25 15H28L23 10V13C23 14.1046 23.8954 15 25 15Z" fill="#EE0033"/>
<path d="M30 27V24C30 22.3431 28.6569 21 27 21H26C25.3705 21 24.7777 21.2964 24.4 21.8L23.2 23.4C22.4446 24.4072 21.259 25 20 25C18.741 25 17.5554 24.4072 16.8 23.4L15.6 21.8C15.2223 21.2964 14.6295 21 14 21H13C11.3431 21 10 22.3431 10 24V27C10 28.6569 11.3431 30 13 30H27C28.6569 30 30 28.6569 30 27Z" fill="#EE0033"/>
<path fill-rule="evenodd" clip-rule="evenodd" d="M15.25 18C15.25 17.5858 15.5858 17.25 16 17.25L24 17.25C24.4142 17.25 24.75 17.5858 24.75 18C24.75 18.4142 24.4142 18.75 24 18.75L16 18.75C15.5858 18.75 15.25 18.4142 15.25 18Z" fill="#EE0033"/>
<path fill-rule="evenodd" clip-rule="evenodd" d="M15.25 14C15.25 13.5858 15.5858 13.25 16 13.25L20 13.25C20.4142 13.25 20.75 13.5858 20.75 14C20.75 14.4142 20.4142 14.75 20 14.75L16 14.75C15.5858 14.75 15.25 14.4142 15.25 14Z" fill="#EE0033"/>
</svg>
