<svg width="40" height="40" viewBox="0 0 40 40" fill="none" xmlns="http://www.w3.org/2000/svg">
<rect width="40" height="40" rx="8" fill="#F3F4F6"/>
<g filter="url(#filter0_i_7400_70368)">
<rect x="8" y="8" width="24" height="24" rx="12" fill="#F192A8"/>
<g clip-path="url(#clip0_7400_70368)">
<path d="M25.6255 12.2937C24.2857 12.2937 23.1983 13.3811 23.1983 14.7209C23.1983 15.0898 23.2954 15.4587 23.4507 15.7694L21.8779 16.9345L22.5576 17.8665L24.1886 16.6626C24.5964 16.9539 25.0818 17.1481 25.6255 17.1481C26.9653 17.1481 28.0527 16.0607 28.0527 14.7209C28.0527 13.3811 26.9653 12.2937 25.6255 12.2937ZM25.6255 15.983C24.9265 15.983 24.3634 15.4199 24.3634 14.7209C24.3634 14.0219 24.9265 13.4588 25.6255 13.4588C26.3245 13.4588 26.8876 14.0219 26.8876 14.7209C26.8876 15.4199 26.3245 15.983 25.6255 15.983Z" fill="#EE0033"/>
<path d="M21.0431 24.9345L20.9654 21.9442L19.8004 21.9831L19.8781 24.9928C18.8684 25.2841 18.1499 26.2161 18.1499 27.3229C18.1499 28.6627 19.2373 29.7501 20.5771 29.7501C21.9169 29.7501 23.0043 28.6627 23.0043 27.3229C23.0043 26.1384 22.1693 25.1675 21.0431 24.9345ZM20.5771 28.585C19.8781 28.585 19.315 28.0219 19.315 27.3228C19.315 26.6238 19.8781 26.0607 20.5771 26.0607C21.2761 26.0607 21.8392 26.6238 21.8392 27.3228C21.8392 28.0219 21.2761 28.585 20.5771 28.585Z" fill="#EE0033"/>
<path d="M26.5576 19.983C25.7809 19.983 25.1013 20.3519 24.6547 20.9151L23.5091 20.3908C23.6062 20.0801 23.6644 19.75 23.6644 19.4005C23.6644 17.6529 22.2276 16.216 20.48 16.216C19.9751 16.216 19.4897 16.3325 19.0625 16.5461L18.2664 15.5753C18.5382 15.1869 18.713 14.7015 18.713 14.1772C18.713 12.8374 17.6256 11.75 16.2858 11.75C14.946 11.75 13.8392 12.8568 13.8392 14.1966C13.8392 15.5364 14.9265 16.6238 16.2663 16.6238C16.6741 16.6238 17.043 16.5267 17.3732 16.352L18.1305 17.2646C17.6062 17.8277 17.2955 18.585 17.2955 19.4005C17.2955 19.6335 17.3149 19.8665 17.3732 20.0995L15.7616 20.7597C15.3344 20.0995 14.5771 19.6723 13.7421 19.6723C12.4023 19.6723 11.3149 20.7597 11.3149 22.0995C11.3149 23.4393 12.4023 24.5267 13.7421 24.5267C15.0819 24.5267 16.1693 23.4393 16.1693 22.0995C16.1693 22.0218 16.1693 21.9442 16.1499 21.8471L17.8198 21.1675C18.3829 22.0218 19.3732 22.5849 20.4606 22.5849C21.4509 22.5849 22.3441 22.1189 22.9266 21.4005L24.1499 21.9636C24.1305 22.0995 24.1111 22.2549 24.1111 22.4102C24.1305 23.75 25.2179 24.8374 26.5577 24.8374C27.8975 24.8374 28.9849 23.75 28.9849 22.4102C28.9848 21.0704 27.8974 19.983 26.5576 19.983ZM16.2663 15.4587C15.5673 15.4587 15.0042 14.8956 15.0042 14.1966C15.0042 13.4976 15.5673 12.9345 16.2663 12.9345C16.9654 12.9345 17.5285 13.4976 17.5285 14.1966C17.5285 14.8956 16.9654 15.4587 16.2663 15.4587ZM13.7421 23.3616C13.0431 23.3616 12.48 22.7985 12.48 22.0995C12.48 21.4005 13.0431 20.8374 13.7421 20.8374C14.4411 20.8374 15.0042 21.4005 15.0042 22.0995C15.0042 22.7985 14.4411 23.3616 13.7421 23.3616ZM20.48 21.4199C19.3731 21.4199 18.4605 20.5073 18.4605 19.4005C18.4605 18.2937 19.3731 17.3811 20.48 17.3811C21.5868 17.3811 22.4994 18.2937 22.4994 19.4005C22.4994 20.5073 21.5867 21.4199 20.48 21.4199ZM26.5576 23.6723C25.8586 23.6723 25.2955 23.1092 25.2955 22.4102C25.2955 21.7112 25.8586 21.1481 26.5576 21.1481C27.2566 21.1481 27.8197 21.7112 27.8197 22.4102C27.8197 23.1092 27.2566 23.6723 26.5576 23.6723Z" fill="white"/>
</g>
</g>
<defs>
<filter id="filter0_i_7400_70368" x="8" y="8" width="24" height="26.5" filterUnits="userSpaceOnUse" color-interpolation-filters="sRGB">
<feFlood flood-opacity="0" result="BackgroundImageFix"/>
<feBlend mode="normal" in="SourceGraphic" in2="BackgroundImageFix" result="shape"/>
<feColorMatrix in="SourceAlpha" type="matrix" values="0 0 0 0 0 0 0 0 0 0 0 0 0 0 0 0 0 0 127 0" result="hardAlpha"/>
<feOffset dy="2.5"/>
<feGaussianBlur stdDeviation="1.5625"/>
<feComposite in2="hardAlpha" operator="arithmetic" k2="-1" k3="1"/>
<feColorMatrix type="matrix" values="0 0 0 0 0.0661111 0 0 0 0 0.356433 0 0 0 0 0.566667 0 0 0 0.05 0"/>
<feBlend mode="normal" in2="shape" result="effect1_innerShadow_7400_70368"/>
</filter>
<clipPath id="clip0_7400_70368">
<rect width="18" height="18" fill="white" transform="translate(11.1499 11.75)"/>
</clipPath>
</defs>
</svg>
