<svg width="24" height="25" viewBox="0 0 24 25" fill="none" xmlns="http://www.w3.org/2000/svg">
<path d="M23.625 0.647321C23.9197 0.861607 24.0402 1.14732 23.9866 1.50446L20.5581 22.0759C20.5134 22.3348 20.3706 22.5357 20.1295 22.6786C20.0045 22.75 19.8661 22.7857 19.7143 22.7857C19.6161 22.7857 19.509 22.7634 19.3929 22.7188L13.3259 20.2411L10.0848 24.192C9.92413 24.3973 9.70538 24.5 9.42859 24.5C9.31252 24.5 9.21431 24.4821 9.13395 24.4464C8.96431 24.3839 8.82815 24.279 8.72547 24.1317C8.62279 23.9844 8.57145 23.8214 8.57145 23.6429V18.9688L20.1429 4.78571L5.82592 17.1741L0.535738 15.0045C0.20538 14.8795 0.026809 14.6339 2.32515e-05 14.2679C-0.0178339 13.9107 0.125023 13.6473 0.428595 13.4777L22.7143 0.620536C22.8482 0.540179 22.9911 0.5 23.1429 0.5C23.3215 0.5 23.4822 0.549107 23.625 0.647321Z" fill="#EE0033"/>
</svg>
