<svg width="24" height="24" viewBox="0 0 24 24" fill="none" xmlns="http://www.w3.org/2000/svg">
<rect x="0.5" y="0.5" width="23" height="23" rx="5.5" fill="white"/>
<rect x="0.5" y="0.5" width="23" height="23" rx="5.5" stroke="#EE0033"/>
<path d="M4.11648 8.14062V6.81818H11.9964V8.14062H8.8196V17H7.28835V8.14062H4.11648ZM15.7276 17.1541C15.0117 17.1541 14.387 16.9901 13.8533 16.6619C13.3197 16.3338 12.9054 15.8748 12.6104 15.2848C12.3155 14.6948 12.168 14.0054 12.168 13.2166C12.168 12.4245 12.3155 11.7318 12.6104 11.1385C12.9054 10.5452 13.3197 10.0845 13.8533 9.75639C14.387 9.42827 15.0117 9.2642 15.7276 9.2642C16.4435 9.2642 17.0683 9.42827 17.6019 9.75639C18.1355 10.0845 18.5498 10.5452 18.8448 11.1385C19.1398 11.7318 19.2873 12.4245 19.2873 13.2166C19.2873 14.0054 19.1398 14.6948 18.8448 15.2848C18.5498 15.8748 18.1355 16.3338 17.6019 16.6619C17.0683 16.9901 16.4435 17.1541 15.7276 17.1541ZM15.7326 15.9062C16.1966 15.9062 16.5811 15.7836 16.886 15.5384C17.1909 15.2931 17.4163 14.9666 17.5621 14.5589C17.7113 14.1513 17.7859 13.7022 17.7859 13.2116C17.7859 12.7244 17.7113 12.277 17.5621 11.8693C17.4163 11.4583 17.1909 11.1286 16.886 10.88C16.5811 10.6314 16.1966 10.5071 15.7326 10.5071C15.2653 10.5071 14.8775 10.6314 14.5692 10.88C14.2643 11.1286 14.0373 11.4583 13.8881 11.8693C13.7423 12.277 13.6694 12.7244 13.6694 13.2116C13.6694 13.7022 13.7423 14.1513 13.8881 14.5589C14.0373 14.9666 14.2643 15.2931 14.5692 15.5384C14.8775 15.7836 15.2653 15.9062 15.7326 15.9062Z" fill="#EE0033"/>
</svg>
