<svg width="29" height="28" viewBox="0 0 29 28" fill="none" xmlns="http://www.w3.org/2000/svg">
<g clip-path="url(#clip0_749_11606)">
<path d="M14.7243 22.5433C14.5777 22.5433 14.4301 22.5433 14.2868 22.5433L10.7813 24.5C9.41667 24.041 8.15092 23.3285 7.05053 22.4L7.0374 18.4625C6.95975 18.34 6.88647 18.2164 6.81865 18.0895L3.33287 16.1044C3.05831 14.7156 3.05831 13.2866 3.33287 11.8978L6.81537 9.91813C6.88647 9.79234 6.95975 9.66766 7.03412 9.54516L7.05162 5.60766C8.15102 4.67648 9.41644 3.96139 10.7813 3.5L14.2813 5.45672C14.4279 5.45672 14.5755 5.45672 14.7188 5.45672L18.2188 3.5C19.5835 3.95903 20.8492 4.6715 21.9496 5.6L21.9627 9.5375C22.0404 9.66 22.1137 9.78359 22.1815 9.91047L25.6651 11.8945C25.9396 13.2833 25.9396 14.7123 25.6651 16.1011L22.1826 18.0808C22.1115 18.2066 22.0382 18.3313 21.9638 18.4538L21.9463 22.3913C20.8477 23.3226 19.583 24.038 18.2188 24.5L14.7243 22.5433Z" fill="#A9CAFF" stroke="#286FDF" stroke-width="2" stroke-linecap="round" stroke-linejoin="round"/>
<path d="M14.5 18.375C16.9162 18.375 18.875 16.4162 18.875 14C18.875 11.5838 16.9162 9.625 14.5 9.625C12.0838 9.625 10.125 11.5838 10.125 14C10.125 16.4162 12.0838 18.375 14.5 18.375Z" stroke="#286FDF" stroke-width="2" stroke-linecap="round" stroke-linejoin="round"/>
</g>
<defs>
<clipPath id="clip0_749_11606">
<rect width="28" height="28" fill="white" transform="translate(0.5)"/>
</clipPath>
</defs>
</svg>
