<svg width="24" height="24" viewBox="0 0 24 24" fill="none" xmlns="http://www.w3.org/2000/svg">
<rect width="24" height="24" rx="12" fill="#0671E0"/>
<path d="M12 5.7V7.5C11.1089 7.49841 10.2373 7.76146 9.49576 8.25582C8.75426 8.75017 8.17624 9.45357 7.83498 10.2768C7.49373 11.1001 7.4046 12.0061 7.5789 12.8801C7.7532 13.7541 8.18308 14.5566 8.81404 15.186L7.54504 16.455C6.66388 15.5739 6.06379 14.4513 5.82067 13.2292C5.57754 12.0071 5.7023 10.7403 6.17917 9.58903C6.65604 8.4378 7.4636 7.45384 8.49971 6.7616C9.53583 6.06935 10.754 5.69991 12 5.7ZM16.455 7.545C17.3362 8.42607 17.9363 9.54867 18.1794 10.7708C18.4225 11.9929 18.2978 13.2597 17.8209 14.411C17.344 15.5622 16.5365 16.5462 15.5004 17.2384C14.4643 17.9306 13.2461 18.3001 12 18.3V16.5C12.8912 16.5016 13.7628 16.2385 14.5043 15.7442C15.2458 15.2498 15.8238 14.5464 16.1651 13.7232C16.5064 12.8999 16.5955 11.9939 16.4212 11.1199C16.2469 10.2459 15.817 9.44337 15.186 8.814L16.455 7.545ZM12 21L8.40004 17.4L12 13.8V21ZM12 10.2V3L15.6 6.6L12 10.2Z" fill="white"/>
</svg>
